<svg width="97" height="123" viewBox="0 0 97 123" fill="none" xmlns="http://www.w3.org/2000/svg">
<path d="M89.3 89.4095C86.9 85.0095 82.2 76.1095 81.3 74.1095C80.7 72.8095 79.5 66.8095 78.7 61.9095C80.7 51.1095 77.1 38.3095 74.6 36.1095C74.5 36.0095 73.1 34.7095 71.3 34.7095C69.5 34.7095 50.8 35.1095 50.8 35.1095C50.9 35.4095 51 35.6095 51 35.9095L51.1 40.8095C51.1 41.1095 51.1 41.4095 50.9 41.7095L63.2 41.5095L64.2 48.3095C63.2 49.7095 62.3 50.8095 61.7 51.4095C61.3 51.4095 60.7 51.3095 60.1 51.1095C60.1 51.3095 60 51.6095 60 51.8095L58.4 56.4095C58.3 56.7095 58.1 57.0095 57.9 57.2095C59.3 57.6095 60.7 57.9095 62 57.9095C62.5 57.9095 63 57.9095 63.5 57.8095C64.1 57.7095 64.8 57.3095 65.5 56.7095L66.1 60.5095C64.6 62.9095 61.2 68.6095 59.7 71.3095C59.2 72.3095 58 74.4095 61 92.0095C61.3 94.1095 63.3 95.5095 65.4 95.1095C67.5 94.8095 68.9 92.8095 68.5 90.7095C67.4 84.4095 66.5 76.6095 66.7 74.5095C67.9 72.3095 70.3 68.4095 71.8 65.8095C72.5 69.6095 73.5 75.2095 74.6 77.4095C75.9 80.2095 82.5 92.6095 82.8 93.1095C83.5 94.4095 84.8 95.1095 86.2 95.1095C86.8 95.1095 87.4 95.0095 88 94.6095C89.6 93.5095 90.3 91.2095 89.3 89.4095Z" fill="black"/>
<path d="M66.5471 32.7003C70.7955 32.5091 74.0844 28.9101 73.8931 24.6617C73.7019 20.4134 70.1029 17.1245 65.8546 17.3157C61.6062 17.507 58.3173 21.106 58.5085 25.3543C58.6998 29.6026 62.2988 32.8916 66.5471 32.7003Z" fill="black"/>
<path d="M45.3 41.7095L48.8 41.6095C49.2 41.6095 49.5 41.2095 49.5 40.8095L49.4 35.9095C49.4 35.5095 49 35.2095 48.6 35.2095L44.8 35.3095C43.8 34.2095 42.4 33.5095 40.7 33.5095C37.8 33.6095 35.5 36.0095 35.6 38.9095C35.7 41.8095 38.1 44.1095 41 44.0095C42.9 44.0095 44.4 43.1095 45.3 41.7095Z" fill="black"/>
<path d="M58 50.2095L54.4 48.9095C53.9 47.5095 52.8 46.3095 51.2 45.8095C48.5 44.8095 45.5 46.3095 44.5 49.0095C43.5 51.7095 45 54.7095 47.7 55.7095C49.4 56.3095 51.2 56.0095 52.5 55.0095L55.8 56.2095C56.2 56.3095 56.6 56.1095 56.7 55.7095L58.3 51.1095C58.6 50.8095 58.4 50.4095 58 50.2095Z" fill="black"/>
<path d="M26.7 16.3095H26.5L28.4 2.0095C28.5 1.0095 27.8 0.109501 26.8 0.00950079C25.8 -0.0904992 24.9 0.609501 24.8 1.6095L22.9 15.9095H22.7C18.4 15.3095 14.3 18.4095 13.7 22.7095L10.3 47.4095C9.7 51.7095 12.8 55.8095 17.1 56.4095L21.1 56.9095C25.4 57.5095 29.5 54.4095 30.1 50.1095L33.5 25.4095C34.1 21.0095 31 16.9095 26.7 16.3095Z" fill="black"/>
<rect y="101.509" width="97" height="21" fill="white"/>
</svg>
