<svg width="94" height="117" viewBox="0 0 94 117" fill="none" xmlns="http://www.w3.org/2000/svg">
<path d="M49.903 32.976C51.936 32.976 53.904 30.274 53.904 26.992C53.904 23.955 52.876 21.976 49.903 21.976C46.887 21.976 45.904 23.954 45.904 26.992C45.905 30.275 47.905 32.976 49.903 32.976Z" fill="black"/>
<path d="M53.921 26.954C53.921 30.237 51.952 32.938 49.92 32.938C47.921 32.938 45.921 30.236 45.921 26.954C45.921 23.916 46.903 21.938 49.92 21.938C52.893 21.938 53.921 23.916 53.921 26.954Z" fill="black"/>
<path d="M37.547 32.625C39.295 31.875 40.523 30.139 40.523 28.119C40.523 25.587 38.586 23.522 36.121 23.267V0.0419998H35.121V23.267C32.655 23.522 30.719 25.587 30.719 28.119C30.719 30.08 31.884 31.763 33.551 32.546V32.602C33.551 33.095 33.92 33.49 34.391 33.57C34.378 34.483 34.354 35.673 34.313 36.783C34.18 40.353 33.751 43.777 34.455 45.125C35.499 47.124 37.203 48.156 37.887 46.052C38.196 45.129 38.7 43.968 38.284 41.673C37.868 39.378 37.327 38.898 37.068 37.317C36.858 36.035 36.764 34.617 36.721 33.569C37.18 33.485 37.535 33.104 37.547 32.625ZM31.718 28.119C31.718 25.968 33.469 24.217 35.62 24.217C37.771 24.217 39.522 25.968 39.522 28.119C39.522 29.613 38.668 30.899 37.431 31.554C37.265 31.231 36.937 31.002 36.55 31.002H34.55C34.187 31.002 33.882 31.208 33.707 31.499C32.525 30.827 31.718 29.572 31.718 28.119Z" fill="black"/>
<path d="M68.876 28.119C68.876 25.587 66.939 23.522 64.474 23.267V0.0419998H63.474V23.267C61.008 23.522 59.072 25.587 59.072 28.119C59.072 30.223 60.412 32.007 62.278 32.701C62.325 33.142 62.656 33.49 63.09 33.568C63.047 34.616 62.953 36.034 62.743 37.316C62.484 38.897 61.943 39.377 61.527 41.672C61.111 43.967 61.615 45.129 61.924 46.051C62.609 48.156 64.312 47.123 65.356 45.124C66.06 43.775 65.631 40.352 65.498 36.782C65.457 35.673 65.433 34.483 65.42 33.569C65.892 33.489 66.26 33.095 66.26 32.601V32.428C67.808 31.604 68.876 29.992 68.876 28.119ZM66.045 31.413C65.862 31.17 65.585 31.002 65.259 31.002H63.258C62.834 31.002 62.475 31.272 62.33 31.646C61 31.023 60.07 29.682 60.07 28.119C60.07 25.968 61.821 24.217 63.972 24.217C66.123 24.217 67.874 25.968 67.874 28.119C67.876 29.508 67.141 30.721 66.045 31.413Z" fill="black"/>
<path d="M60.511 41.672C60.77 40.245 61.076 39.52 61.334 38.795L58.433 34.811C57.826 34.204 57.018 33.92 56.218 33.945C56.216 33.945 56.213 33.941 56.21 33.94H43.71C43.702 33.941 43.692 33.951 43.683 33.953C42.853 33.902 42.007 34.18 41.376 34.81L38.465 38.808C38.721 39.528 39.026 40.253 39.283 41.671C39.571 43.263 39.416 44.303 39.191 45.103L41.588 42.635C41.897 41.807 42.081 41.141 42.267 40.21L42.433 42.9L43.541 51.088H43.542C43.542 51.088 43.543 51.097 43.545 51.112L43.795 52.962C44.076 53.691 44.763 54.021 44.763 54.021C44.763 54.021 44.378 54.014 43.931 53.901C43.934 53.911 43.936 53.922 43.937 53.932C43.935 53.96 43.921 53.983 43.921 54.011V73.29C43.921 73.325 43.938 73.355 43.941 73.389C43.943 73.457 43.965 73.522 43.982 73.589C43.993 73.624 43.997 73.662 44.012 73.695C44.026 73.733 44.025 73.772 44.044 73.809L47.023 79.096L49.565 73.028C49.562 73.021 49.559 73.015 49.556 73.008C49.113 72.046 48.032 71.539 48.032 71.539C48.032 71.539 48.741 71.54 49.428 71.831L49.658 60.027H50.152L50.382 71.834C51.056 71.542 51.748 71.529 51.748 71.529C51.748 71.529 50.675 72.054 50.248 73.023C50.042 73.49 49.902 73.807 49.811 74.013L44.415 86.895C44.163 87.384 44.358 87.99 44.847 88.242L46.162 88.918C46.651 89.17 47.257 88.975 47.509 88.486L49.912 84.222L52.315 88.486C52.567 88.975 53.173 89.169 53.662 88.918L54.977 88.242C55.466 87.99 55.66 87.384 55.409 86.895L52.423 79.767L55.779 73.811C55.854 73.666 55.878 73.511 55.878 73.358C55.88 73.335 55.892 73.315 55.892 73.291V54.013C55.892 53.985 55.878 53.961 55.876 53.933C55.878 53.923 55.88 53.913 55.882 53.903C55.435 54.016 55.05 54.023 55.05 54.023C55.05 54.023 55.737 53.693 56.018 52.964L56.268 51.116C56.27 51.1 56.271 51.09 56.271 51.09H56.272L57.38 42.901L57.546 40.211C57.732 41.142 57.916 41.808 58.225 42.636L60.601 45.083C60.376 44.286 60.225 43.25 60.511 41.672Z" fill="black"/>
<rect x="-3" y="96" width="97" height="21" fill="white"/>
</svg>
