<svg width="104" height="125" viewBox="0 0 104 125" fill="none" xmlns="http://www.w3.org/2000/svg">
<path d="M98.987 94H8.987V95H98.987V94Z" fill="black"/>
<path d="M85.141 51.49L71.063 44.142L65.11 43.799C65.227 43.905 65.349 44.004 65.461 44.116L66.467 45.122L71.142 45.284L84.378 54.263C84.447 54.295 84.514 54.338 84.578 54.387C84.949 54.346 85.285 54.107 85.417 53.734L85.75 52.766C85.935 52.247 85.66 51.673 85.141 51.49Z" fill="black"/>
<path d="M49.905 34C46.798 34 45.405 36.462 45.405 39.5C45.405 42.783 46.543 45 48.776 45C51.026 45 54.405 42.818 54.405 39.5C54.405 36.462 53.011 34 49.905 34Z" fill="black"/>
<path d="M39 70.5H19L16 94.5H42L39 70.5Z" fill="black"/>
<path d="M84.098 54.677L70.939 45.789L55.493 45.242C55.621 44.964 55.903 44.757 56.211 44.768L64.199 45.045V45.044L65.203 45.079C62.386 42.306 58.11 41.838 54.522 43.588C52.851 44.403 52.512 46.647 53.854 47.934L66.068 59.662C67.409 58.724 68.724 59.933 68.724 59.933C68.724 59.933 67.706 59.456 66.387 60.563L54.389 72.547C54.389 72.547 54.386 72.563 54.382 72.581C54.088 72.929 53.904 73.373 53.904 73.864C53.904 73.888 53.91 73.91 53.911 73.934C53.91 73.956 53.905 73.98 53.905 74L54.905 93.158C54.905 93.621 55.355 94 55.905 94H57.905C58.455 94 58.905 93.621 58.905 93.157L59.837 75.891C59.723 74.87 58.905 74 58.905 74C58.905 74 60.2 74.019 60.7 75.073L76.028 65.166C76.033 65.161 76.036 65.148 76.041 65.141C77.553 64.192 78.567 62.522 78.567 60.605C78.567 59.407 78.161 58.313 77.498 57.42C77.469 57.362 77.438 57.304 77.389 57.257L77.244 57.112C77.074 56.915 76.891 56.733 76.694 56.562L72.17 52.04L68.942 50.235C66.14 50.084 61.796 49.816 58.508 49.639C57.791 49.6 57.141 49.305 56.618 48.858L69.117 49.586C69.119 49.582 82.784 57.401 82.784 57.401C83.279 57.641 83.88 57.434 84.12 56.939L84.56 56.015C84.801 55.519 84.593 54.918 84.098 54.677Z" fill="black"/>
<path d="M7.02734 113.872C6.9834 114.248 6.84424 114.539 6.60986 114.744C6.37712 114.947 6.06706 115.049 5.67969 115.049C5.25977 115.049 4.92285 114.898 4.66895 114.597C4.41667 114.296 4.29053 113.893 4.29053 113.389V113.047C4.29053 112.716 4.34912 112.426 4.46631 112.175C4.58512 111.925 4.75277 111.733 4.96924 111.599C5.18571 111.464 5.43636 111.396 5.72119 111.396C6.0988 111.396 6.40153 111.502 6.62939 111.714C6.85726 111.924 6.98991 112.215 7.02734 112.588H6.55615C6.51546 112.305 6.42676 112.1 6.29004 111.973C6.15495 111.846 5.96533 111.782 5.72119 111.782C5.42171 111.782 5.18652 111.893 5.01562 112.114C4.84635 112.336 4.76172 112.651 4.76172 113.059V113.403C4.76172 113.789 4.84229 114.096 5.00342 114.324C5.16455 114.552 5.38997 114.666 5.67969 114.666C5.9401 114.666 6.13949 114.607 6.27783 114.49C6.41781 114.371 6.51058 114.165 6.55615 113.872H7.02734ZM8.87549 112.764C8.80713 112.752 8.73307 112.747 8.65332 112.747C8.3571 112.747 8.15609 112.873 8.05029 113.125V115H7.59863V112.358H8.03809L8.04541 112.664C8.19352 112.428 8.40348 112.31 8.67529 112.31C8.76318 112.31 8.82992 112.321 8.87549 112.344V112.764ZM10.3403 115.049C9.98226 115.049 9.69092 114.932 9.46631 114.697C9.2417 114.461 9.12939 114.146 9.12939 113.752V113.669C9.12939 113.407 9.17904 113.174 9.27832 112.969C9.37923 112.762 9.51921 112.601 9.69824 112.485C9.87891 112.368 10.0742 112.31 10.2842 112.31C10.6276 112.31 10.8945 112.423 11.085 112.649C11.2754 112.875 11.3706 113.199 11.3706 113.621V113.809H9.58105C9.58757 114.069 9.66325 114.28 9.80811 114.441C9.95459 114.6 10.1401 114.68 10.3647 114.68C10.5243 114.68 10.6593 114.648 10.77 114.583C10.8807 114.517 10.9775 114.431 11.0605 114.324L11.3364 114.539C11.1151 114.879 10.783 115.049 10.3403 115.049ZM10.2842 112.681C10.1019 112.681 9.94889 112.747 9.8252 112.881C9.7015 113.013 9.625 113.198 9.5957 113.438H10.9189V113.403C10.9059 113.174 10.8441 112.996 10.7334 112.871C10.6227 112.744 10.473 112.681 10.2842 112.681ZM13.5264 115C13.5003 114.948 13.4792 114.855 13.4629 114.722C13.2529 114.94 13.0023 115.049 12.7109 115.049C12.4505 115.049 12.2365 114.976 12.0688 114.829C11.9028 114.681 11.8198 114.494 11.8198 114.268C11.8198 113.993 11.924 113.779 12.1323 113.628C12.3423 113.475 12.6369 113.398 13.0161 113.398H13.4556V113.191C13.4556 113.033 13.4084 112.908 13.314 112.815C13.2196 112.721 13.0804 112.673 12.8965 112.673C12.7354 112.673 12.6003 112.714 12.4912 112.795C12.3822 112.877 12.3276 112.975 12.3276 113.091H11.8735C11.8735 112.959 11.9199 112.832 12.0127 112.71C12.1071 112.586 12.234 112.489 12.3936 112.417C12.5547 112.345 12.7313 112.31 12.9233 112.31C13.2277 112.31 13.4661 112.386 13.6387 112.539C13.8112 112.69 13.9007 112.9 13.9072 113.167V114.382C13.9072 114.625 13.9382 114.818 14 114.961V115H13.5264ZM12.7769 114.656C12.9185 114.656 13.0527 114.619 13.1797 114.546C13.3066 114.473 13.3986 114.377 13.4556 114.26V113.718H13.1016C12.5482 113.718 12.2715 113.88 12.2715 114.204C12.2715 114.346 12.3187 114.456 12.4131 114.536C12.5075 114.616 12.6287 114.656 12.7769 114.656ZM15.228 111.719V112.358H15.7212V112.708H15.228V114.346C15.228 114.451 15.25 114.531 15.2939 114.585C15.3379 114.637 15.4128 114.663 15.5186 114.663C15.5706 114.663 15.6423 114.653 15.7334 114.634V115C15.6146 115.033 15.499 115.049 15.3867 115.049C15.1849 115.049 15.0327 114.988 14.9302 114.866C14.8276 114.744 14.7764 114.57 14.7764 114.346V112.708H14.2954V112.358H14.7764V111.719H15.228ZM17.3472 115.049C16.9891 115.049 16.6978 114.932 16.4731 114.697C16.2485 114.461 16.1362 114.146 16.1362 113.752V113.669C16.1362 113.407 16.1859 113.174 16.2852 112.969C16.3861 112.762 16.526 112.601 16.7051 112.485C16.8857 112.368 17.0811 112.31 17.291 112.31C17.6344 112.31 17.9014 112.423 18.0918 112.649C18.2822 112.875 18.3774 113.199 18.3774 113.621V113.809H16.5879C16.5944 114.069 16.6701 114.28 16.8149 114.441C16.9614 114.6 17.147 114.68 17.3716 114.68C17.5311 114.68 17.6662 114.648 17.7769 114.583C17.8875 114.517 17.9844 114.431 18.0674 114.324L18.3433 114.539C18.1219 114.879 17.7899 115.049 17.3472 115.049ZM17.291 112.681C17.1087 112.681 16.9557 112.747 16.832 112.881C16.7083 113.013 16.6318 113.198 16.6025 113.438H17.9258V113.403C17.9128 113.174 17.8509 112.996 17.7402 112.871C17.6296 112.744 17.4798 112.681 17.291 112.681ZM18.7925 113.657C18.7925 113.252 18.8885 112.926 19.0806 112.681C19.2726 112.433 19.5241 112.31 19.835 112.31C20.1442 112.31 20.3892 112.415 20.5698 112.627V111.25H21.0215V115H20.6064L20.5845 114.717C20.4038 114.938 20.1523 115.049 19.8301 115.049C19.5241 115.049 19.2743 114.924 19.0806 114.673C18.8885 114.422 18.7925 114.095 18.7925 113.691V113.657ZM19.2441 113.708C19.2441 114.008 19.306 114.242 19.4297 114.412C19.5534 114.581 19.7243 114.666 19.9424 114.666C20.2288 114.666 20.438 114.537 20.5698 114.28V113.066C20.4347 112.817 20.2272 112.693 19.9473 112.693C19.7259 112.693 19.5534 112.778 19.4297 112.949C19.306 113.12 19.2441 113.373 19.2441 113.708ZM25.2012 113.708C25.2012 114.112 25.1084 114.437 24.9229 114.683C24.7373 114.927 24.4883 115.049 24.1758 115.049C23.8421 115.049 23.5841 114.931 23.4019 114.695L23.3799 115H22.9648V111.25H23.4165V112.649C23.5988 112.423 23.8503 112.31 24.1709 112.31C24.4915 112.31 24.743 112.431 24.9253 112.673C25.1092 112.916 25.2012 113.248 25.2012 113.669V113.708ZM24.7495 113.657C24.7495 113.35 24.6901 113.112 24.5713 112.944C24.4525 112.777 24.2816 112.693 24.0586 112.693C23.7607 112.693 23.5467 112.831 23.4165 113.108V114.25C23.5549 114.527 23.7705 114.666 24.0635 114.666C24.2799 114.666 24.4484 114.582 24.5688 114.414C24.6893 114.246 24.7495 113.994 24.7495 113.657ZM26.6074 114.338L27.2227 112.358H27.7061L26.644 115.408C26.4797 115.847 26.2184 116.067 25.8604 116.067L25.7749 116.06L25.6064 116.028V115.662L25.7285 115.671C25.8815 115.671 26.0003 115.64 26.085 115.579C26.1712 115.517 26.242 115.404 26.2974 115.239L26.3975 114.971L25.4551 112.358H25.9482L26.6074 114.338ZM29.4224 115V111.445H30.4258C30.735 111.445 31.0085 111.514 31.2461 111.65C31.4837 111.787 31.6668 111.982 31.7954 112.234C31.9256 112.486 31.9915 112.776 31.9932 113.103V113.33C31.9932 113.665 31.9281 113.959 31.7979 114.211C31.6693 114.464 31.4845 114.657 31.2437 114.792C31.0044 114.928 30.7253 114.997 30.4062 115H29.4224ZM29.8911 111.831V114.617H30.3843C30.7456 114.617 31.0264 114.504 31.2266 114.28C31.4284 114.055 31.5293 113.735 31.5293 113.32V113.113C31.5293 112.709 31.4341 112.396 31.2437 112.173C31.0549 111.948 30.7863 111.834 30.438 111.831H29.8911ZM34.7129 113.357H33.1724V114.617H34.9619V115H32.7036V111.445H34.9375V111.831H33.1724V112.974H34.7129V113.357ZM36.1509 111.445L37.313 114.346L38.4751 111.445H39.083V115H38.6143V113.616L38.6582 112.122L37.4912 115H37.1323L35.9678 112.129L36.0142 113.616V115H35.5454V111.445H36.1509ZM42.645 113.337C42.645 113.686 42.5864 113.99 42.4692 114.25C42.3521 114.509 42.186 114.707 41.9712 114.844C41.7563 114.98 41.5057 115.049 41.2192 115.049C40.9393 115.049 40.6911 114.98 40.4746 114.844C40.2581 114.705 40.0897 114.509 39.9692 114.255C39.8504 114 39.7894 113.704 39.7861 113.369V113.113C39.7861 112.771 39.8455 112.469 39.9644 112.207C40.0832 111.945 40.2508 111.745 40.4673 111.606C40.6854 111.466 40.9344 111.396 41.2144 111.396C41.4992 111.396 41.7498 111.466 41.9663 111.604C42.1844 111.741 42.3521 111.94 42.4692 112.202C42.5864 112.463 42.645 112.766 42.645 113.113V113.337ZM42.1787 113.108C42.1787 112.686 42.0941 112.363 41.9248 112.139C41.7555 111.912 41.5187 111.799 41.2144 111.799C40.9181 111.799 40.6846 111.912 40.5137 112.139C40.3444 112.363 40.2573 112.676 40.2524 113.076V113.337C40.2524 113.746 40.3379 114.067 40.5088 114.302C40.6813 114.535 40.9181 114.651 41.2192 114.651C41.522 114.651 41.7563 114.541 41.9224 114.321C42.0884 114.1 42.1738 113.783 42.1787 113.372V113.108ZM45.9727 114.534C45.8522 114.706 45.6838 114.836 45.4673 114.922C45.2524 115.007 45.0018 115.049 44.7153 115.049C44.4256 115.049 44.1685 114.981 43.9438 114.846C43.7192 114.709 43.5451 114.516 43.4214 114.265C43.2993 114.014 43.2367 113.724 43.2334 113.394V113.083C43.2334 112.548 43.3579 112.133 43.6069 111.838C43.8576 111.544 44.2091 111.396 44.6616 111.396C45.0327 111.396 45.3314 111.492 45.5576 111.682C45.7839 111.871 45.9222 112.139 45.9727 112.488H45.5039C45.416 112.017 45.1361 111.782 44.6641 111.782C44.3499 111.782 44.1115 111.893 43.9487 112.114C43.7876 112.334 43.7062 112.653 43.7046 113.071V113.362C43.7046 113.761 43.7957 114.078 43.978 114.314C44.1603 114.548 44.4069 114.666 44.7178 114.666C44.8936 114.666 45.0474 114.646 45.1792 114.607C45.311 114.568 45.4201 114.502 45.5063 114.409V113.611H44.6836V113.23H45.9727V114.534ZM48.0601 113.562H47.2251V115H46.7539V111.445H47.9307C48.3311 111.445 48.6387 111.536 48.8535 111.719C49.07 111.901 49.1782 112.166 49.1782 112.515C49.1782 112.736 49.118 112.929 48.9976 113.093C48.8787 113.258 48.7127 113.381 48.4995 113.462L49.3345 114.971V115H48.8315L48.0601 113.562ZM47.2251 113.179H47.9453C48.1781 113.179 48.3628 113.118 48.4995 112.998C48.6379 112.878 48.707 112.716 48.707 112.515C48.707 112.295 48.6411 112.126 48.5093 112.009C48.3791 111.892 48.1903 111.833 47.9429 111.831H47.2251V113.179ZM51.8003 114.072H50.311L49.9766 115H49.4932L50.8506 111.445H51.2607L52.6206 115H52.1396L51.8003 114.072ZM50.4526 113.687H51.6611L51.0557 112.024L50.4526 113.687ZM53.5679 113.608V115H53.0991V111.445H54.4102C54.7992 111.445 55.1035 111.545 55.3232 111.743C55.5446 111.942 55.6553 112.205 55.6553 112.532C55.6553 112.877 55.547 113.143 55.3306 113.33C55.1157 113.516 54.8073 113.608 54.4053 113.608H53.5679ZM53.5679 113.225H54.4102C54.6608 113.225 54.8529 113.167 54.9863 113.049C55.1198 112.931 55.1865 112.76 55.1865 112.537C55.1865 112.325 55.1198 112.156 54.9863 112.029C54.8529 111.902 54.6698 111.836 54.437 111.831H53.5679V113.225ZM58.9854 115H58.5142V113.357H56.7222V115H56.2534V111.445H56.7222V112.974H58.5142V111.445H58.9854V115Z" fill="black"/>
<path d="M4.56396 120V117.708H4.14648V117.358H4.56396V117.087C4.56396 116.804 4.63965 116.585 4.79102 116.431C4.94238 116.276 5.15641 116.199 5.43311 116.199C5.53727 116.199 5.64062 116.213 5.74316 116.24L5.71875 116.606C5.64225 116.592 5.56087 116.584 5.47461 116.584C5.32812 116.584 5.21501 116.628 5.13525 116.714C5.0555 116.799 5.01562 116.921 5.01562 117.08V117.358H5.57959V117.708H5.01562V120H4.56396ZM7.35693 117.764C7.28857 117.752 7.21452 117.747 7.13477 117.747C6.83854 117.747 6.63753 117.873 6.53174 118.125V120H6.08008V117.358H6.51953L6.52686 117.664C6.67497 117.428 6.88493 117.31 7.15674 117.31C7.24463 117.31 7.31136 117.321 7.35693 117.344V117.764ZM7.60596 118.655C7.60596 118.396 7.65641 118.163 7.75732 117.957C7.85986 117.75 8.00146 117.59 8.18213 117.478C8.36442 117.366 8.57194 117.31 8.80469 117.31C9.16439 117.31 9.45492 117.434 9.67627 117.683C9.89925 117.932 10.0107 118.263 10.0107 118.677V118.708C10.0107 118.966 9.9611 119.197 9.86182 119.402C9.76416 119.605 9.62337 119.764 9.43945 119.878C9.25716 119.992 9.0472 120.049 8.80957 120.049C8.4515 120.049 8.16097 119.924 7.93799 119.675C7.71663 119.426 7.60596 119.097 7.60596 118.687V118.655ZM8.06006 118.708C8.06006 119.001 8.1276 119.237 8.2627 119.414C8.39941 119.591 8.58171 119.68 8.80957 119.68C9.03906 119.68 9.22135 119.591 9.35645 119.412C9.49154 119.231 9.55908 118.979 9.55908 118.655C9.55908 118.365 9.48991 118.131 9.35156 117.952C9.21484 117.771 9.03255 117.681 8.80469 117.681C8.58171 117.681 8.40186 117.769 8.26514 117.947C8.12842 118.124 8.06006 118.378 8.06006 118.708ZM11.002 117.358L11.0142 117.651C11.2078 117.424 11.4691 117.31 11.7979 117.31C12.1673 117.31 12.4188 117.451 12.5522 117.734C12.6401 117.607 12.7541 117.505 12.894 117.427C13.0356 117.349 13.2025 117.31 13.3945 117.31C13.974 117.31 14.2686 117.616 14.2783 118.23V120H13.8267V118.257C13.8267 118.068 13.7835 117.927 13.6973 117.834C13.611 117.74 13.4661 117.693 13.2627 117.693C13.0951 117.693 12.9559 117.743 12.8452 117.844C12.7345 117.944 12.6702 118.078 12.6523 118.247V120H12.1982V118.269C12.1982 117.885 12.0103 117.693 11.6343 117.693C11.3381 117.693 11.1354 117.819 11.0264 118.071V120H10.5747V117.358H11.002ZM16.8149 116.719V117.358H17.3081V117.708H16.8149V119.346C16.8149 119.451 16.8369 119.531 16.8809 119.585C16.9248 119.637 16.9997 119.663 17.1055 119.663C17.1576 119.663 17.2292 119.653 17.3203 119.634V120C17.2015 120.033 17.0859 120.049 16.9736 120.049C16.7718 120.049 16.6196 119.988 16.5171 119.866C16.4146 119.744 16.3633 119.57 16.3633 119.346V117.708H15.8823V117.358H16.3633V116.719H16.8149ZM18.2896 117.678C18.4897 117.432 18.7502 117.31 19.0708 117.31C19.6291 117.31 19.9106 117.625 19.9155 118.254V120H19.4639V118.252C19.4622 118.062 19.4183 117.921 19.332 117.83C19.2474 117.738 19.1147 117.693 18.9341 117.693C18.7876 117.693 18.659 117.732 18.5483 117.81C18.4377 117.888 18.3514 117.991 18.2896 118.118V120H17.8379V116.25H18.2896V117.678ZM21.688 120.049C21.3299 120.049 21.0386 119.932 20.814 119.697C20.5894 119.461 20.4771 119.146 20.4771 118.752V118.669C20.4771 118.407 20.5267 118.174 20.626 117.969C20.7269 117.762 20.8669 117.601 21.0459 117.485C21.2266 117.368 21.4219 117.31 21.6318 117.31C21.9753 117.31 22.2422 117.423 22.4326 117.649C22.623 117.875 22.7183 118.199 22.7183 118.621V118.809H20.9287C20.9352 119.069 21.0109 119.28 21.1558 119.441C21.3022 119.6 21.4878 119.68 21.7124 119.68C21.8719 119.68 22.007 119.648 22.1177 119.583C22.2284 119.517 22.3252 119.431 22.4082 119.324L22.6841 119.539C22.4627 119.879 22.1307 120.049 21.688 120.049ZM21.6318 117.681C21.4495 117.681 21.2965 117.747 21.1729 117.881C21.0492 118.013 20.9727 118.198 20.9434 118.438H22.2666V118.403C22.2536 118.174 22.1917 117.996 22.0811 117.871C21.9704 117.744 21.8206 117.681 21.6318 117.681ZM27.2861 120H26.8149L25.0254 117.261V120H24.5542V116.445H25.0254L26.8198 119.197V116.445H27.2861V120ZM27.9282 118.655C27.9282 118.396 27.9787 118.163 28.0796 117.957C28.1821 117.75 28.3237 117.59 28.5044 117.478C28.6867 117.366 28.8942 117.31 29.127 117.31C29.4867 117.31 29.7772 117.434 29.9985 117.683C30.2215 117.932 30.333 118.263 30.333 118.677V118.708C30.333 118.966 30.2834 119.197 30.1841 119.402C30.0864 119.605 29.9456 119.764 29.7617 119.878C29.5794 119.992 29.3695 120.049 29.1318 120.049C28.7738 120.049 28.4832 119.924 28.2603 119.675C28.0389 119.426 27.9282 119.097 27.9282 118.687V118.655ZM28.3823 118.708C28.3823 119.001 28.4499 119.237 28.585 119.414C28.7217 119.591 28.904 119.68 29.1318 119.68C29.3613 119.68 29.5436 119.591 29.6787 119.412C29.8138 119.231 29.8813 118.979 29.8813 118.655C29.8813 118.365 29.8122 118.131 29.6738 117.952C29.5371 117.771 29.3548 117.681 29.127 117.681C28.904 117.681 28.7241 117.769 28.5874 117.947C28.4507 118.124 28.3823 118.378 28.3823 118.708ZM32.5303 119.739C32.3545 119.945 32.0965 120.049 31.7563 120.049C31.4748 120.049 31.2599 119.967 31.1118 119.805C30.9653 119.64 30.8913 119.398 30.8896 119.077V117.358H31.3413V119.065C31.3413 119.465 31.5041 119.666 31.8296 119.666C32.1746 119.666 32.4041 119.537 32.5181 119.28V117.358H32.9697V120H32.54L32.5303 119.739ZM34.0854 117.358L34.1001 117.69C34.3019 117.437 34.5656 117.31 34.8911 117.31C35.4494 117.31 35.731 117.625 35.7358 118.254V120H35.2842V118.252C35.2826 118.062 35.2386 117.921 35.1523 117.83C35.0677 117.738 34.9351 117.693 34.7544 117.693C34.6079 117.693 34.4793 117.732 34.3687 117.81C34.258 117.888 34.1717 117.991 34.1099 118.118V120H33.6582V117.358H34.0854ZM38.1968 118.608V120H37.728V116.445H39.0391C39.4281 116.445 39.7324 116.545 39.9521 116.743C40.1735 116.942 40.2842 117.205 40.2842 117.532C40.2842 117.877 40.1759 118.143 39.9595 118.33C39.7446 118.516 39.4362 118.608 39.0342 118.608H38.1968ZM38.1968 118.225H39.0391C39.2897 118.225 39.4818 118.167 39.6152 118.049C39.7487 117.931 39.8154 117.76 39.8154 117.537C39.8154 117.325 39.7487 117.156 39.6152 117.029C39.4818 116.902 39.2987 116.836 39.0659 116.831H38.1968V118.225ZM42.0884 117.764C42.02 117.752 41.946 117.747 41.8662 117.747C41.57 117.747 41.369 117.873 41.2632 118.125V120H40.8115V117.358H41.251L41.2583 117.664C41.4064 117.428 41.6164 117.31 41.8882 117.31C41.9761 117.31 42.0428 117.321 42.0884 117.344V117.764ZM42.3374 118.655C42.3374 118.396 42.3879 118.163 42.4888 117.957C42.5913 117.75 42.7329 117.59 42.9136 117.478C43.0959 117.366 43.3034 117.31 43.5361 117.31C43.8958 117.31 44.1864 117.434 44.4077 117.683C44.6307 117.932 44.7422 118.263 44.7422 118.677V118.708C44.7422 118.966 44.6925 119.197 44.5933 119.402C44.4956 119.605 44.3548 119.764 44.1709 119.878C43.9886 119.992 43.7786 120.049 43.541 120.049C43.1829 120.049 42.8924 119.924 42.6694 119.675C42.4481 119.426 42.3374 119.097 42.3374 118.687V118.655ZM42.7915 118.708C42.7915 119.001 42.859 119.237 42.9941 119.414C43.1309 119.591 43.3132 119.68 43.541 119.68C43.7705 119.68 43.9528 119.591 44.0879 119.412C44.223 119.231 44.2905 118.979 44.2905 118.655C44.2905 118.365 44.2214 118.131 44.083 117.952C43.9463 117.771 43.764 117.681 43.5361 117.681C43.3132 117.681 43.1333 117.769 42.9966 117.947C42.8599 118.124 42.7915 118.378 42.7915 118.708ZM45.7749 117.358V120.305C45.7749 120.813 45.5446 121.067 45.084 121.067C44.9847 121.067 44.8927 121.052 44.8081 121.023V120.662C44.8602 120.675 44.9285 120.681 45.0132 120.681C45.1141 120.681 45.1906 120.653 45.2427 120.598C45.2964 120.544 45.3232 120.45 45.3232 120.315V117.358H45.7749ZM45.2769 116.658C45.2769 116.586 45.2988 116.525 45.3428 116.475C45.3883 116.423 45.4543 116.396 45.5405 116.396C45.6284 116.396 45.6951 116.422 45.7407 116.472C45.7863 116.523 45.8091 116.584 45.8091 116.658C45.8091 116.731 45.7863 116.792 45.7407 116.841C45.6951 116.89 45.6284 116.914 45.5405 116.914C45.4526 116.914 45.3867 116.89 45.3428 116.841C45.2988 116.792 45.2769 116.731 45.2769 116.658ZM47.6011 120.049C47.243 120.049 46.9517 119.932 46.7271 119.697C46.5024 119.461 46.3901 119.146 46.3901 118.752V118.669C46.3901 118.407 46.4398 118.174 46.5391 117.969C46.64 117.762 46.7799 117.601 46.959 117.485C47.1396 117.368 47.335 117.31 47.5449 117.31C47.8883 117.31 48.1553 117.423 48.3457 117.649C48.5361 117.875 48.6313 118.199 48.6313 118.621V118.809H46.8418C46.8483 119.069 46.924 119.28 47.0688 119.441C47.2153 119.6 47.4009 119.68 47.6255 119.68C47.785 119.68 47.9201 119.648 48.0308 119.583C48.1414 119.517 48.2383 119.431 48.3213 119.324L48.5972 119.539C48.3758 119.879 48.0438 120.049 47.6011 120.049ZM47.5449 117.681C47.3626 117.681 47.2096 117.747 47.0859 117.881C46.9622 118.013 46.8857 118.198 46.8564 118.438H48.1797V118.403C48.1667 118.174 48.1048 117.996 47.9941 117.871C47.8835 117.744 47.7337 117.681 47.5449 117.681ZM50.2158 119.68C50.377 119.68 50.5177 119.631 50.6382 119.534C50.7586 119.436 50.8254 119.314 50.8384 119.167H51.2656C51.2575 119.319 51.2054 119.463 51.1094 119.6C51.0133 119.736 50.8848 119.845 50.7236 119.927C50.5641 120.008 50.3949 120.049 50.2158 120.049C49.8561 120.049 49.5697 119.929 49.3564 119.69C49.1449 119.449 49.0391 119.12 49.0391 118.704V118.628C49.0391 118.371 49.0863 118.142 49.1807 117.942C49.2751 117.742 49.4102 117.586 49.5859 117.476C49.7633 117.365 49.9725 117.31 50.2134 117.31C50.5096 117.31 50.7554 117.398 50.9507 117.576C51.1476 117.753 51.2526 117.983 51.2656 118.267H50.8384C50.8254 118.096 50.7603 117.956 50.6431 117.847C50.5275 117.736 50.3843 117.681 50.2134 117.681C49.9839 117.681 49.8057 117.764 49.6787 117.93C49.5534 118.094 49.4907 118.333 49.4907 118.645V118.73C49.4907 119.035 49.5534 119.269 49.6787 119.434C49.804 119.598 49.9831 119.68 50.2158 119.68ZM52.3862 116.719V117.358H52.8794V117.708H52.3862V119.346C52.3862 119.451 52.4082 119.531 52.4521 119.585C52.4961 119.637 52.571 119.663 52.6768 119.663C52.7288 119.663 52.8005 119.653 52.8916 119.634V120C52.7728 120.033 52.6572 120.049 52.5449 120.049C52.3431 120.049 52.1909 119.988 52.0884 119.866C51.9858 119.744 51.9346 119.57 51.9346 119.346V117.708H51.4536V117.358H51.9346V116.719H52.3862Z" fill="black"/>
<rect y="100" width="97" height="21" fill="white"/>
</svg>
