<svg width="99" height="105" viewBox="0 0 99 105" fill="none" xmlns="http://www.w3.org/2000/svg">
<path d="M95.905 76.132H5.905V77.132H95.905V76.132Z" fill="black"/>
<path d="M70.013 33.328L74.608 31.861C75.375 31.06 75.913 30.011 75.913 28.779C75.913 26.14 74.702 24 72.003 24C69.304 24 68.093 26.14 68.093 28.779C68.092 31.079 68.746 32.756 70.013 33.328Z" fill="black"/>
<path d="M95.976 44.349C95.95 44.298 95.924 44.248 95.881 44.207L95.755 44.081C95.607 43.91 95.449 43.751 95.277 43.603L85.339 33.664C83.315 31.64 80.407 31.026 77.686 31.733C77.699 31.712 77.694 31.703 77.652 31.719L77.37 31.809C77.268 31.84 77.167 31.872 77.065 31.906L62.337 36.609L52.994 34.235C53.053 32.838 52.777 31.276 51.673 29.947C50.764 28.852 48.64 27.615 45.698 27.684C42.774 27.765 38.33 29.153 33.764 35.311C28.039 43.03 23.431 50.957 19.727 57.328C17.054 61.925 14.584 66.167 12.473 68.898C10.135 66.394 8.85601 63.909 8.83201 63.86C8.58301 63.368 7.98201 63.169 7.49001 63.416C6.99701 63.664 6.79801 64.265 7.04501 64.758C7.15601 64.98 8.56001 67.722 11.15 70.449C10.017 71.622 9.01701 72.203 8.18601 71.941C7.65801 71.775 7.09801 72.069 6.93301 72.596C6.76801 73.123 7.06101 73.684 7.58801 73.849C7.94101 73.959 8.29101 74.014 8.63901 74.014C9.94201 74.014 11.229 73.242 12.59 71.841C15.025 73.993 18.231 75.848 22.155 76.043C22.383 76.055 22.609 76.061 22.837 76.061C30.499 76.06 38.454 69.634 46.491 56.946C50.601 50.457 53.496 48.7 55.201 48.369C56.069 48.199 56.856 48.363 57.539 48.853C57.92 49.127 58.4 49.901 58.867 50.828C58.521 51.056 58.365 51.496 58.536 51.888L58.885 52.706C59.059 53.106 59.501 53.293 59.91 53.181C60.036 53.503 60.154 53.816 60.253 54.1C60.434 54.621 61.006 54.899 61.526 54.715C62.047 54.533 62.323 53.963 62.142 53.442C62.07 53.234 61.92 52.814 61.71 52.283L70.806 47.563L70.829 47.553C70.826 47.549 70.824 47.546 70.821 47.542L77.159 38.959L85.819 46.476C87.057 45.34 88.351 46.531 88.351 46.531C88.351 46.531 87.467 46.117 86.322 47.076L75.898 57.492C75.898 57.492 75.895 57.506 75.892 57.522C75.637 57.824 75.477 58.21 75.477 58.637C75.477 58.658 75.482 58.677 75.483 58.698C75.482 58.717 75.477 58.738 75.477 58.755L76.346 75.4C76.346 75.803 76.737 76.132 77.215 76.132H78.953C79.431 76.132 79.822 75.803 79.822 75.4L80.631 60.398C80.533 59.511 79.822 58.755 79.822 58.755C79.822 58.755 80.947 58.771 81.382 59.687L94.7 51.08C94.704 51.076 94.707 51.064 94.711 51.059C96.025 50.234 96.905 48.783 96.905 47.117C96.905 46.076 96.552 45.125 95.976 44.349ZM77.171 38.945C77.129 38.888 77.044 38.791 76.915 38.69C76.909 38.685 76.901 38.681 76.895 38.676C76.833 38.629 76.761 38.583 76.678 38.537C76.668 38.532 76.663 38.526 76.653 38.521L76.662 38.529C76.275 38.322 75.659 38.166 74.708 38.38C74.429 38.443 73.223 38.667 71.919 38.906L68.739 44.694L60.573 49.762C60.018 48.7 59.371 47.706 58.707 47.229C57.575 46.417 56.23 46.129 54.821 46.407C51.779 46.998 48.408 50.184 44.803 55.877C36.945 68.281 29.369 74.415 22.267 74.048C18.9 73.883 16.096 72.23 13.926 70.305C16.082 67.572 18.48 63.457 21.458 58.335C25.136 52.009 29.714 44.135 35.373 36.505C39.46 30.993 43.275 29.754 45.755 29.686C47.858 29.627 49.465 30.419 50.137 31.227C50.757 31.973 50.977 32.874 51 33.746C50.639 33.722 50.284 33.917 50.138 34.269L49.79 35.088C49.607 35.529 49.818 36.04 50.259 36.224L50.585 36.334C50.425 36.824 50.279 37.14 50.274 37.15C50.035 37.647 50.244 38.244 50.74 38.484C51.237 38.721 51.835 38.515 52.075 38.019C52.101 37.965 52.284 37.572 52.481 36.974L61.761 40.108L61.784 40.118C61.785 40.113 61.786 40.108 61.787 40.103L71.28 38.284L72.379 38.067L74.898 37.57C74.991 37.547 75.066 37.554 75.152 37.542L75.219 37.529C75.302 37.52 75.394 37.498 75.47 37.498L75.478 37.505C76.865 37.522 77.208 39.002 77.208 39.002C77.208 39.002 77.196 38.978 77.171 38.945Z" fill="black"/>
<rect y="83.132" width="97" height="21" fill="white"/>
<rect x="2" width="97" height="21" fill="white"/>
</svg>
