<svg width="67" height="84" viewBox="0 0 67 84" fill="none" xmlns="http://www.w3.org/2000/svg">
<g clip-path="url(#clip0_118:48)">
<path d="M20.7 39C19.4 40 17.5 39.7 16.5 38.3C15.5 37 15.8 35.2 17.1 34.2C16.1 33.9 15 33.7 13.9 33.7C7.3 33.8 2 39.1 2 45.7C2 52.3 7.3 57.6 13.9 57.6C20.4 57.6 25.8 52.3 25.8 45.7C25.8 42.6 24.6 39.7 22.6 37.6C21.9 38.1 21.3 38.6 20.7 39Z" fill="black"/>
<path d="M10.7 20.4C14 20.4 16.6 17.7 16.6 14.5C16.6 11.2 13.9 8.60001 10.7 8.60001C7.4 8.60001 4.8 11.3 4.8 14.5C4.8 17.7 7.5 20.4 10.7 20.4Z" fill="black"/>
<path d="M64.5 49.2C55 43.8 47.3 34.7 44.6 31.3C45.2 29.3 44.8 27.1 43.2 25.4C37.9 19.8 27.5 13.8 26.3 13.2C23.4 11.6 19.8 12.6 18.1 15.5C16.5 18.4 17.5 22 20.4 23.7C20.6 23.8 20.9 24 21.2 24.2C21.2 21.8 20.7 19.9 20.7 19.9C20.3 18.3 21.2 16.6 22.9 16.2C24.5 15.8 26.1 16.7 26.6 18.3C26.7 18.6 27.8 22.9 27.1 27.8C29.9 29.7 32.8 31.9 34.6 33.7C36 35.1 38 35.9 40.3 35.4C43.5 39.4 51.5 48.5 61.6 54.4C63 55.2 64.9 54.7 65.7 53.3C66.4 51.9 66 50 64.5 49.2Z" fill="black"/>
<path d="M23.1 17.2C22 17.5 21.4 18.6 21.7 19.6C21.7 19.7 24.4 30.2 17.7 35C16.8 35.6 16.6 36.9 17.3 37.8C17.9 38.7 19.2 38.9 20.1 38.2C28.9 31.8 25.7 19.1 25.6 18.6C25.3 17.5 24.2 16.9 23.1 17.2Z" fill="black"/>
<path d="M4.02734 79.8721C3.9834 80.248 3.84424 80.5386 3.60986 80.7437C3.37712 80.9471 3.06706 81.0488 2.67969 81.0488C2.25977 81.0488 1.92285 80.8983 1.66895 80.5972C1.41667 80.2961 1.29053 79.8932 1.29053 79.3887V79.0469C1.29053 78.7165 1.34912 78.4259 1.46631 78.1753C1.58512 77.9246 1.75277 77.7326 1.96924 77.5991C2.18571 77.464 2.43636 77.3965 2.72119 77.3965C3.0988 77.3965 3.40153 77.5023 3.62939 77.7139C3.85726 77.9238 3.98991 78.2152 4.02734 78.5879H3.55615C3.51546 78.3047 3.42676 78.0996 3.29004 77.9727C3.15495 77.8457 2.96533 77.7822 2.72119 77.7822C2.42171 77.7822 2.18652 77.8929 2.01562 78.1143C1.84635 78.3356 1.76172 78.6506 1.76172 79.0591V79.4033C1.76172 79.7891 1.84229 80.0959 2.00342 80.3237C2.16455 80.5516 2.38997 80.6655 2.67969 80.6655C2.9401 80.6655 3.13949 80.6069 3.27783 80.4897C3.41781 80.3709 3.51058 80.165 3.55615 79.8721H4.02734ZM5.87549 78.7637C5.80713 78.7523 5.73307 78.7466 5.65332 78.7466C5.3571 78.7466 5.15609 78.8727 5.05029 79.125V81H4.59863V78.3584H5.03809L5.04541 78.6636C5.19352 78.4276 5.40348 78.3096 5.67529 78.3096C5.76318 78.3096 5.82992 78.321 5.87549 78.3438V78.7637ZM7.34033 81.0488C6.98226 81.0488 6.69092 80.9316 6.46631 80.6973C6.2417 80.4613 6.12939 80.1463 6.12939 79.7524V79.6694C6.12939 79.4074 6.17904 79.1738 6.27832 78.9688C6.37923 78.762 6.51921 78.6009 6.69824 78.4854C6.87891 78.3682 7.07422 78.3096 7.28418 78.3096C7.6276 78.3096 7.89453 78.4227 8.08496 78.6489C8.27539 78.8752 8.37061 79.1991 8.37061 79.6206V79.8086H6.58105C6.58757 80.069 6.66325 80.2798 6.80811 80.4409C6.95459 80.6004 7.14014 80.6802 7.36475 80.6802C7.52425 80.6802 7.65934 80.6476 7.77002 80.5825C7.8807 80.5174 7.97754 80.4312 8.06055 80.3237L8.33643 80.5386C8.11507 80.8787 7.78304 81.0488 7.34033 81.0488ZM7.28418 78.6807C7.10189 78.6807 6.94889 78.7474 6.8252 78.8809C6.7015 79.0127 6.625 79.1982 6.5957 79.4375H7.91895V79.4033C7.90592 79.1738 7.84408 78.9964 7.7334 78.8711C7.62272 78.7441 7.47298 78.6807 7.28418 78.6807ZM10.5264 81C10.5003 80.9479 10.4792 80.8551 10.4629 80.7217C10.2529 80.9398 10.0023 81.0488 9.71094 81.0488C9.45052 81.0488 9.23649 80.9756 9.06885 80.8291C8.90283 80.681 8.81982 80.4938 8.81982 80.2676C8.81982 79.9925 8.92399 79.7793 9.13232 79.6279C9.34229 79.4749 9.63688 79.3984 10.0161 79.3984H10.4556V79.1909C10.4556 79.033 10.4084 78.9077 10.314 78.8149C10.2196 78.7205 10.0804 78.6733 9.89648 78.6733C9.73535 78.6733 9.60026 78.714 9.49121 78.7954C9.38216 78.8768 9.32764 78.9753 9.32764 79.0908H8.87354C8.87354 78.959 8.91992 78.832 9.0127 78.71C9.1071 78.5863 9.23405 78.4886 9.39355 78.417C9.55469 78.3454 9.73128 78.3096 9.92334 78.3096C10.2277 78.3096 10.4661 78.3861 10.6387 78.5391C10.8112 78.6904 10.9007 78.8996 10.9072 79.1665V80.3823C10.9072 80.6248 10.9382 80.8177 11 80.9609V81H10.5264ZM9.77686 80.6558C9.91846 80.6558 10.0527 80.6191 10.1797 80.5459C10.3066 80.4727 10.3986 80.3774 10.4556 80.2603V79.7183H10.1016C9.54818 79.7183 9.27148 79.8802 9.27148 80.2041C9.27148 80.3457 9.31868 80.4564 9.41309 80.5361C9.50749 80.6159 9.62874 80.6558 9.77686 80.6558ZM12.228 77.7188V78.3584H12.7212V78.7075H12.228V80.3457C12.228 80.4515 12.25 80.5312 12.2939 80.585C12.3379 80.637 12.4128 80.6631 12.5186 80.6631C12.5706 80.6631 12.6423 80.6533 12.7334 80.6338V81C12.6146 81.0326 12.499 81.0488 12.3867 81.0488C12.1849 81.0488 12.0327 80.9878 11.9302 80.8657C11.8276 80.7437 11.7764 80.5703 11.7764 80.3457V78.7075H11.2954V78.3584H11.7764V77.7188H12.228ZM14.3472 81.0488C13.9891 81.0488 13.6978 80.9316 13.4731 80.6973C13.2485 80.4613 13.1362 80.1463 13.1362 79.7524V79.6694C13.1362 79.4074 13.1859 79.1738 13.2852 78.9688C13.3861 78.762 13.526 78.6009 13.7051 78.4854C13.8857 78.3682 14.0811 78.3096 14.291 78.3096C14.6344 78.3096 14.9014 78.4227 15.0918 78.6489C15.2822 78.8752 15.3774 79.1991 15.3774 79.6206V79.8086H13.5879C13.5944 80.069 13.6701 80.2798 13.8149 80.4409C13.9614 80.6004 14.147 80.6802 14.3716 80.6802C14.5311 80.6802 14.6662 80.6476 14.7769 80.5825C14.8875 80.5174 14.9844 80.4312 15.0674 80.3237L15.3433 80.5386C15.1219 80.8787 14.7899 81.0488 14.3472 81.0488ZM14.291 78.6807C14.1087 78.6807 13.9557 78.7474 13.832 78.8809C13.7083 79.0127 13.6318 79.1982 13.6025 79.4375H14.9258V79.4033C14.9128 79.1738 14.8509 78.9964 14.7402 78.8711C14.6296 78.7441 14.4798 78.6807 14.291 78.6807ZM15.7925 79.6572C15.7925 79.252 15.8885 78.9264 16.0806 78.6807C16.2726 78.4333 16.5241 78.3096 16.835 78.3096C17.1442 78.3096 17.3892 78.4154 17.5698 78.627V77.25H18.0215V81H17.6064L17.5845 80.7168C17.4038 80.9382 17.1523 81.0488 16.8301 81.0488C16.5241 81.0488 16.2743 80.9235 16.0806 80.6729C15.8885 80.4222 15.7925 80.0951 15.7925 79.6914V79.6572ZM16.2441 79.7085C16.2441 80.008 16.306 80.2424 16.4297 80.4116C16.5534 80.5809 16.7243 80.6655 16.9424 80.6655C17.2288 80.6655 17.438 80.5369 17.5698 80.2798V79.0664C17.4347 78.8174 17.2272 78.6929 16.9473 78.6929C16.7259 78.6929 16.5534 78.7783 16.4297 78.9492C16.306 79.1201 16.2441 79.3732 16.2441 79.7085ZM22.2012 79.7085C22.2012 80.1121 22.1084 80.4368 21.9229 80.6826C21.7373 80.9268 21.4883 81.0488 21.1758 81.0488C20.8421 81.0488 20.5841 80.9308 20.4019 80.6948L20.3799 81H19.9648V77.25H20.4165V78.6489C20.5988 78.4227 20.8503 78.3096 21.1709 78.3096C21.4915 78.3096 21.743 78.4308 21.9253 78.6733C22.1092 78.9159 22.2012 79.2479 22.2012 79.6694V79.7085ZM21.7495 79.6572C21.7495 79.3496 21.6901 79.112 21.5713 78.9443C21.4525 78.7767 21.2816 78.6929 21.0586 78.6929C20.7607 78.6929 20.5467 78.8312 20.4165 79.1079V80.2505C20.5549 80.5272 20.7705 80.6655 21.0635 80.6655C21.2799 80.6655 21.4484 80.5817 21.5688 80.4141C21.6893 80.2464 21.7495 79.9941 21.7495 79.6572ZM23.6074 80.3384L24.2227 78.3584H24.7061L23.644 81.4077C23.4797 81.8472 23.2184 82.0669 22.8604 82.0669L22.7749 82.0596L22.6064 82.0278V81.6616L22.7285 81.6714C22.8815 81.6714 23.0003 81.6405 23.085 81.5786C23.1712 81.5168 23.242 81.4036 23.2974 81.2393L23.3975 80.9707L22.4551 78.3584H22.9482L23.6074 80.3384ZM26.8911 79.6084V81H26.4224V77.4453H27.7334C28.1224 77.4453 28.4268 77.5446 28.6465 77.7432C28.8678 77.9417 28.9785 78.2046 28.9785 78.5317C28.9785 78.8768 28.8703 79.1429 28.6538 79.3301C28.439 79.5156 28.1305 79.6084 27.7285 79.6084H26.8911ZM26.8911 79.2251H27.7334C27.984 79.2251 28.1761 79.1665 28.3096 79.0493C28.443 78.9305 28.5098 78.7596 28.5098 78.5366C28.5098 78.325 28.443 78.1558 28.3096 78.0288C28.1761 77.9019 27.993 77.8359 27.7603 77.8311H26.8911V79.2251ZM30.7827 78.7637C30.7144 78.7523 30.6403 78.7466 30.5605 78.7466C30.2643 78.7466 30.0633 78.8727 29.9575 79.125V81H29.5059V78.3584H29.9453L29.9526 78.6636C30.1007 78.4276 30.3107 78.3096 30.5825 78.3096C30.6704 78.3096 30.7371 78.321 30.7827 78.3438V78.7637ZM31.0317 79.6548C31.0317 79.396 31.0822 79.1632 31.1831 78.9565C31.2856 78.7498 31.4272 78.5903 31.6079 78.478C31.7902 78.3657 31.9977 78.3096 32.2305 78.3096C32.5902 78.3096 32.8807 78.4341 33.1021 78.6831C33.325 78.9321 33.4365 79.2633 33.4365 79.6768V79.7085C33.4365 79.9657 33.3869 80.1968 33.2876 80.4019C33.1899 80.6053 33.0492 80.764 32.8652 80.8779C32.6829 80.9919 32.473 81.0488 32.2354 81.0488C31.8773 81.0488 31.5868 80.9243 31.3638 80.6753C31.1424 80.4263 31.0317 80.0967 31.0317 79.6865V79.6548ZM31.4858 79.7085C31.4858 80.0015 31.5534 80.2367 31.6885 80.4141C31.8252 80.5915 32.0075 80.6802 32.2354 80.6802C32.4648 80.6802 32.6471 80.5907 32.7822 80.4116C32.9173 80.231 32.9849 79.9787 32.9849 79.6548C32.9849 79.3651 32.9157 79.1307 32.7773 78.9517C32.6406 78.771 32.4583 78.6807 32.2305 78.6807C32.0075 78.6807 31.8276 78.7694 31.6909 78.9468C31.5542 79.1242 31.4858 79.3781 31.4858 79.7085ZM35.1211 79.4155C34.7191 79.3 34.4261 79.1584 34.2422 78.9907C34.0599 78.8215 33.9688 78.6131 33.9688 78.3657C33.9688 78.0858 34.0802 77.8547 34.3032 77.6724C34.5278 77.4884 34.8192 77.3965 35.1772 77.3965C35.4214 77.3965 35.6387 77.4437 35.8291 77.5381C36.0212 77.6325 36.1693 77.7627 36.2734 77.9287C36.3792 78.0947 36.4321 78.2762 36.4321 78.4731H35.9609C35.9609 78.2583 35.8926 78.0898 35.7559 77.9678C35.6191 77.8441 35.4263 77.7822 35.1772 77.7822C34.9461 77.7822 34.7655 77.8335 34.6353 77.936C34.5067 78.0369 34.4424 78.1777 34.4424 78.3584C34.4424 78.5033 34.5034 78.6261 34.6255 78.7271C34.7492 78.8263 34.9583 78.9175 35.2529 79.0005C35.5492 79.0835 35.7803 79.1755 35.9463 79.2764C36.1139 79.3757 36.2376 79.492 36.3174 79.6255C36.3988 79.759 36.4395 79.916 36.4395 80.0967C36.4395 80.3848 36.3271 80.6159 36.1025 80.79C35.8779 80.9626 35.5776 81.0488 35.2017 81.0488C34.9575 81.0488 34.7297 81.0024 34.5181 80.9097C34.3065 80.8153 34.1429 80.6867 34.0273 80.5239C33.9134 80.3612 33.8564 80.1764 33.8564 79.9697H34.3276C34.3276 80.1846 34.4066 80.3547 34.5645 80.48C34.724 80.6037 34.9364 80.6655 35.2017 80.6655C35.4491 80.6655 35.6387 80.6151 35.7705 80.5142C35.9023 80.4132 35.9683 80.2757 35.9683 80.1016C35.9683 79.9274 35.9072 79.7931 35.7852 79.6987C35.6631 79.6027 35.4417 79.5083 35.1211 79.4155ZM37.8359 80.3384L38.4512 78.3584H38.9346L37.8726 81.4077C37.7082 81.8472 37.4469 82.0669 37.0889 82.0669L37.0034 82.0596L36.835 82.0278V81.6616L36.957 81.6714C37.11 81.6714 37.2288 81.6405 37.3135 81.5786C37.3997 81.5168 37.4705 81.4036 37.5259 81.2393L37.626 80.9707L36.6836 78.3584H37.1768L37.8359 80.3384ZM39.7646 78.3584L39.7769 78.6514C39.9705 78.4235 40.2318 78.3096 40.5605 78.3096C40.93 78.3096 41.1815 78.4512 41.3149 78.7344C41.4028 78.6074 41.5168 78.5049 41.6567 78.4268C41.7983 78.3486 41.9652 78.3096 42.1572 78.3096C42.7367 78.3096 43.0312 78.6164 43.041 79.23V81H42.5894V79.2568C42.5894 79.068 42.5462 78.9272 42.46 78.8345C42.3737 78.7401 42.2288 78.6929 42.0254 78.6929C41.8577 78.6929 41.7186 78.7433 41.6079 78.8442C41.4972 78.9435 41.4329 79.0778 41.415 79.2471V81H40.9609V79.269C40.9609 78.8849 40.7729 78.6929 40.397 78.6929C40.1007 78.6929 39.8981 78.819 39.7891 79.0713V81H39.3374V78.3584H39.7646ZM45.9609 79.7085C45.9609 80.1121 45.8682 80.4368 45.6826 80.6826C45.4971 80.9268 45.248 81.0488 44.9355 81.0488C44.6019 81.0488 44.3439 80.9308 44.1616 80.6948L44.1396 81H43.7246V77.25H44.1763V78.6489C44.3586 78.4227 44.61 78.3096 44.9307 78.3096C45.2513 78.3096 45.5028 78.4308 45.6851 78.6733C45.869 78.9159 45.9609 79.2479 45.9609 79.6694V79.7085ZM45.5093 79.6572C45.5093 79.3496 45.4499 79.112 45.3311 78.9443C45.2122 78.7767 45.0413 78.6929 44.8184 78.6929C44.5205 78.6929 44.3065 78.8312 44.1763 79.1079V80.2505C44.3146 80.5272 44.5303 80.6655 44.8232 80.6655C45.0397 80.6655 45.2082 80.5817 45.3286 80.4141C45.4491 80.2464 45.5093 79.9941 45.5093 79.6572ZM46.4126 79.6548C46.4126 79.396 46.4631 79.1632 46.564 78.9565C46.6665 78.7498 46.8081 78.5903 46.9888 78.478C47.1711 78.3657 47.3786 78.3096 47.6113 78.3096C47.971 78.3096 48.2616 78.4341 48.4829 78.6831C48.7059 78.9321 48.8174 79.2633 48.8174 79.6768V79.7085C48.8174 79.9657 48.7677 80.1968 48.6685 80.4019C48.5708 80.6053 48.43 80.764 48.2461 80.8779C48.0638 80.9919 47.8538 81.0488 47.6162 81.0488C47.2581 81.0488 46.9676 80.9243 46.7446 80.6753C46.5233 80.4263 46.4126 80.0967 46.4126 79.6865V79.6548ZM46.8667 79.7085C46.8667 80.0015 46.9342 80.2367 47.0693 80.4141C47.2061 80.5915 47.3883 80.6802 47.6162 80.6802C47.8457 80.6802 48.028 80.5907 48.1631 80.4116C48.2982 80.231 48.3657 79.9787 48.3657 79.6548C48.3657 79.3651 48.2965 79.1307 48.1582 78.9517C48.0215 78.771 47.8392 78.6807 47.6113 78.6807C47.3883 78.6807 47.2085 78.7694 47.0718 78.9468C46.9351 79.1242 46.8667 79.3781 46.8667 79.7085ZM49.8745 81H49.4229V77.25H49.8745V81ZM52.1377 80.2993C52.1377 80.1772 52.0913 80.0828 51.9985 80.0161C51.9074 79.9478 51.7471 79.8892 51.5176 79.8403C51.2897 79.7915 51.1082 79.7329 50.9731 79.6646C50.8397 79.5962 50.7404 79.5148 50.6753 79.4204C50.6118 79.326 50.5801 79.2137 50.5801 79.0835C50.5801 78.867 50.6712 78.6839 50.8535 78.5342C51.0374 78.3844 51.2718 78.3096 51.5566 78.3096C51.8561 78.3096 52.0986 78.3869 52.2842 78.5415C52.4714 78.6961 52.5649 78.8939 52.5649 79.1348H52.1108C52.1108 79.0111 52.0579 78.9045 51.9521 78.8149C51.848 78.7254 51.7161 78.6807 51.5566 78.6807C51.3923 78.6807 51.2637 78.7165 51.1709 78.7881C51.0781 78.8597 51.0317 78.9533 51.0317 79.0688C51.0317 79.1779 51.0749 79.2601 51.1611 79.3154C51.2474 79.3708 51.4028 79.4237 51.6274 79.4741C51.8537 79.5246 52.0368 79.5848 52.1768 79.6548C52.3167 79.7248 52.4201 79.8094 52.4868 79.9087C52.5552 80.0063 52.5894 80.126 52.5894 80.2676C52.5894 80.5036 52.495 80.6932 52.3062 80.8364C52.1174 80.978 51.8724 81.0488 51.5713 81.0488C51.3597 81.0488 51.1725 81.0114 51.0098 80.9365C50.847 80.8617 50.7192 80.7575 50.6265 80.624C50.5353 80.4889 50.4897 80.3433 50.4897 80.187H50.9414C50.9495 80.3384 51.0098 80.4588 51.1221 80.5483C51.236 80.6362 51.3857 80.6802 51.5713 80.6802C51.7422 80.6802 51.8789 80.646 51.9814 80.5776C52.0856 80.5076 52.1377 80.4149 52.1377 80.2993Z" fill="black"/>
<path d="M1.56396 86V83.7075H1.14648V83.3584H1.56396V83.0874C1.56396 82.8042 1.63965 82.5853 1.79102 82.4307C1.94238 82.276 2.15641 82.1987 2.43311 82.1987C2.53727 82.1987 2.64062 82.2126 2.74316 82.2402L2.71875 82.6064C2.64225 82.5918 2.56087 82.5845 2.47461 82.5845C2.32812 82.5845 2.21501 82.6276 2.13525 82.7139C2.0555 82.7985 2.01562 82.9206 2.01562 83.0801V83.3584H2.57959V83.7075H2.01562V86H1.56396ZM4.35693 83.7637C4.28857 83.7523 4.21452 83.7466 4.13477 83.7466C3.83854 83.7466 3.63753 83.8727 3.53174 84.125V86H3.08008V83.3584H3.51953L3.52686 83.6636C3.67497 83.4276 3.88493 83.3096 4.15674 83.3096C4.24463 83.3096 4.31136 83.321 4.35693 83.3438V83.7637ZM4.60596 84.6548C4.60596 84.396 4.65641 84.1632 4.75732 83.9565C4.85986 83.7498 5.00146 83.5903 5.18213 83.478C5.36442 83.3657 5.57194 83.3096 5.80469 83.3096C6.16439 83.3096 6.45492 83.4341 6.67627 83.6831C6.89925 83.9321 7.01074 84.2633 7.01074 84.6768V84.7085C7.01074 84.9657 6.9611 85.1968 6.86182 85.4019C6.76416 85.6053 6.62337 85.764 6.43945 85.8779C6.25716 85.9919 6.0472 86.0488 5.80957 86.0488C5.4515 86.0488 5.16097 85.9243 4.93799 85.6753C4.71663 85.4263 4.60596 85.0967 4.60596 84.6865V84.6548ZM5.06006 84.7085C5.06006 85.0015 5.1276 85.2367 5.2627 85.4141C5.39941 85.5915 5.58171 85.6802 5.80957 85.6802C6.03906 85.6802 6.22135 85.5907 6.35645 85.4116C6.49154 85.231 6.55908 84.9787 6.55908 84.6548C6.55908 84.3651 6.48991 84.1307 6.35156 83.9517C6.21484 83.771 6.03255 83.6807 5.80469 83.6807C5.58171 83.6807 5.40186 83.7694 5.26514 83.9468C5.12842 84.1242 5.06006 84.3781 5.06006 84.7085ZM8.00195 83.3584L8.01416 83.6514C8.20785 83.4235 8.46908 83.3096 8.79785 83.3096C9.16732 83.3096 9.41878 83.4512 9.55225 83.7344C9.64014 83.6074 9.75407 83.5049 9.89404 83.4268C10.0356 83.3486 10.2025 83.3096 10.3945 83.3096C10.974 83.3096 11.2686 83.6164 11.2783 84.23V86H10.8267V84.2568C10.8267 84.068 10.7835 83.9272 10.6973 83.8345C10.611 83.7401 10.4661 83.6929 10.2627 83.6929C10.0951 83.6929 9.95589 83.7433 9.84521 83.8442C9.73454 83.9435 9.67025 84.0778 9.65234 84.2471V86H9.19824V84.269C9.19824 83.8849 9.01025 83.6929 8.63428 83.6929C8.33805 83.6929 8.13542 83.819 8.02637 84.0713V86H7.57471V83.3584H8.00195ZM13.8149 82.7188V83.3584H14.3081V83.7075H13.8149V85.3457C13.8149 85.4515 13.8369 85.5312 13.8809 85.585C13.9248 85.637 13.9997 85.6631 14.1055 85.6631C14.1576 85.6631 14.2292 85.6533 14.3203 85.6338V86C14.2015 86.0326 14.0859 86.0488 13.9736 86.0488C13.7718 86.0488 13.6196 85.9878 13.5171 85.8657C13.4146 85.7437 13.3633 85.5703 13.3633 85.3457V83.7075H12.8823V83.3584H13.3633V82.7188H13.8149ZM15.2896 83.6782C15.4897 83.4325 15.7502 83.3096 16.0708 83.3096C16.6291 83.3096 16.9106 83.6245 16.9155 84.2544V86H16.4639V84.252C16.4622 84.0615 16.4183 83.9207 16.332 83.8296C16.2474 83.7384 16.1147 83.6929 15.9341 83.6929C15.7876 83.6929 15.659 83.7319 15.5483 83.8101C15.4377 83.8882 15.3514 83.9907 15.2896 84.1177V86H14.8379V82.25H15.2896V83.6782ZM18.688 86.0488C18.3299 86.0488 18.0386 85.9316 17.814 85.6973C17.5894 85.4613 17.4771 85.1463 17.4771 84.7524V84.6694C17.4771 84.4074 17.5267 84.1738 17.626 83.9688C17.7269 83.762 17.8669 83.6009 18.0459 83.4854C18.2266 83.3682 18.4219 83.3096 18.6318 83.3096C18.9753 83.3096 19.2422 83.4227 19.4326 83.6489C19.623 83.8752 19.7183 84.1991 19.7183 84.6206V84.8086H17.9287C17.9352 85.069 18.0109 85.2798 18.1558 85.4409C18.3022 85.6004 18.4878 85.6802 18.7124 85.6802C18.8719 85.6802 19.007 85.6476 19.1177 85.5825C19.2284 85.5174 19.3252 85.4312 19.4082 85.3237L19.6841 85.5386C19.4627 85.8787 19.1307 86.0488 18.688 86.0488ZM18.6318 83.6807C18.4495 83.6807 18.2965 83.7474 18.1729 83.8809C18.0492 84.0127 17.9727 84.1982 17.9434 84.4375H19.2666V84.4033C19.2536 84.1738 19.1917 83.9964 19.0811 83.8711C18.9704 83.7441 18.8206 83.6807 18.6318 83.6807ZM24.2861 86H23.8149L22.0254 83.2607V86H21.5542V82.4453H22.0254L23.8198 85.1968V82.4453H24.2861V86ZM24.9282 84.6548C24.9282 84.396 24.9787 84.1632 25.0796 83.9565C25.1821 83.7498 25.3237 83.5903 25.5044 83.478C25.6867 83.3657 25.8942 83.3096 26.127 83.3096C26.4867 83.3096 26.7772 83.4341 26.9985 83.6831C27.2215 83.9321 27.333 84.2633 27.333 84.6768V84.7085C27.333 84.9657 27.2834 85.1968 27.1841 85.4019C27.0864 85.6053 26.9456 85.764 26.7617 85.8779C26.5794 85.9919 26.3695 86.0488 26.1318 86.0488C25.7738 86.0488 25.4832 85.9243 25.2603 85.6753C25.0389 85.4263 24.9282 85.0967 24.9282 84.6865V84.6548ZM25.3823 84.7085C25.3823 85.0015 25.4499 85.2367 25.585 85.4141C25.7217 85.5915 25.904 85.6802 26.1318 85.6802C26.3613 85.6802 26.5436 85.5907 26.6787 85.4116C26.8138 85.231 26.8813 84.9787 26.8813 84.6548C26.8813 84.3651 26.8122 84.1307 26.6738 83.9517C26.5371 83.771 26.3548 83.6807 26.127 83.6807C25.904 83.6807 25.7241 83.7694 25.5874 83.9468C25.4507 84.1242 25.3823 84.3781 25.3823 84.7085ZM29.5303 85.7388C29.3545 85.9455 29.0965 86.0488 28.7563 86.0488C28.4748 86.0488 28.2599 85.9674 28.1118 85.8047C27.9653 85.6403 27.8913 85.3978 27.8896 85.0771V83.3584H28.3413V85.0649C28.3413 85.4653 28.5041 85.6655 28.8296 85.6655C29.1746 85.6655 29.4041 85.5369 29.5181 85.2798V83.3584H29.9697V86H29.54L29.5303 85.7388ZM31.0854 83.3584L31.1001 83.6904C31.3019 83.4365 31.5656 83.3096 31.8911 83.3096C32.4494 83.3096 32.731 83.6245 32.7358 84.2544V86H32.2842V84.252C32.2826 84.0615 32.2386 83.9207 32.1523 83.8296C32.0677 83.7384 31.9351 83.6929 31.7544 83.6929C31.6079 83.6929 31.4793 83.7319 31.3687 83.8101C31.258 83.8882 31.1717 83.9907 31.1099 84.1177V86H30.6582V83.3584H31.0854ZM35.1968 84.6084V86H34.728V82.4453H36.0391C36.4281 82.4453 36.7324 82.5446 36.9521 82.7432C37.1735 82.9417 37.2842 83.2046 37.2842 83.5317C37.2842 83.8768 37.1759 84.1429 36.9595 84.3301C36.7446 84.5156 36.4362 84.6084 36.0342 84.6084H35.1968ZM35.1968 84.2251H36.0391C36.2897 84.2251 36.4818 84.1665 36.6152 84.0493C36.7487 83.9305 36.8154 83.7596 36.8154 83.5366C36.8154 83.325 36.7487 83.1558 36.6152 83.0288C36.4818 82.9019 36.2987 82.8359 36.0659 82.8311H35.1968V84.2251ZM39.0884 83.7637C39.02 83.7523 38.946 83.7466 38.8662 83.7466C38.57 83.7466 38.369 83.8727 38.2632 84.125V86H37.8115V83.3584H38.251L38.2583 83.6636C38.4064 83.4276 38.6164 83.3096 38.8882 83.3096C38.9761 83.3096 39.0428 83.321 39.0884 83.3438V83.7637ZM39.3374 84.6548C39.3374 84.396 39.3879 84.1632 39.4888 83.9565C39.5913 83.7498 39.7329 83.5903 39.9136 83.478C40.0959 83.3657 40.3034 83.3096 40.5361 83.3096C40.8958 83.3096 41.1864 83.4341 41.4077 83.6831C41.6307 83.9321 41.7422 84.2633 41.7422 84.6768V84.7085C41.7422 84.9657 41.6925 85.1968 41.5933 85.4019C41.4956 85.6053 41.3548 85.764 41.1709 85.8779C40.9886 85.9919 40.7786 86.0488 40.541 86.0488C40.1829 86.0488 39.8924 85.9243 39.6694 85.6753C39.4481 85.4263 39.3374 85.0967 39.3374 84.6865V84.6548ZM39.7915 84.7085C39.7915 85.0015 39.859 85.2367 39.9941 85.4141C40.1309 85.5915 40.3132 85.6802 40.541 85.6802C40.7705 85.6802 40.9528 85.5907 41.0879 85.4116C41.223 85.231 41.2905 84.9787 41.2905 84.6548C41.2905 84.3651 41.2214 84.1307 41.083 83.9517C40.9463 83.771 40.764 83.6807 40.5361 83.6807C40.3132 83.6807 40.1333 83.7694 39.9966 83.9468C39.8599 84.1242 39.7915 84.3781 39.7915 84.7085ZM42.7749 83.3584V86.3052C42.7749 86.813 42.5446 87.0669 42.084 87.0669C41.9847 87.0669 41.8927 87.0522 41.8081 87.0229V86.6616C41.8602 86.6746 41.9285 86.6812 42.0132 86.6812C42.1141 86.6812 42.1906 86.6535 42.2427 86.5981C42.2964 86.5444 42.3232 86.45 42.3232 86.3149V83.3584H42.7749ZM42.2769 82.6577C42.2769 82.5861 42.2988 82.5251 42.3428 82.4746C42.3883 82.4225 42.4543 82.3965 42.5405 82.3965C42.6284 82.3965 42.6951 82.4217 42.7407 82.4722C42.7863 82.5226 42.8091 82.5845 42.8091 82.6577C42.8091 82.731 42.7863 82.792 42.7407 82.8408C42.6951 82.8896 42.6284 82.9141 42.5405 82.9141C42.4526 82.9141 42.3867 82.8896 42.3428 82.8408C42.2988 82.792 42.2769 82.731 42.2769 82.6577ZM44.6011 86.0488C44.243 86.0488 43.9517 85.9316 43.7271 85.6973C43.5024 85.4613 43.3901 85.1463 43.3901 84.7524V84.6694C43.3901 84.4074 43.4398 84.1738 43.5391 83.9688C43.64 83.762 43.7799 83.6009 43.959 83.4854C44.1396 83.3682 44.335 83.3096 44.5449 83.3096C44.8883 83.3096 45.1553 83.4227 45.3457 83.6489C45.5361 83.8752 45.6313 84.1991 45.6313 84.6206V84.8086H43.8418C43.8483 85.069 43.924 85.2798 44.0688 85.4409C44.2153 85.6004 44.4009 85.6802 44.6255 85.6802C44.785 85.6802 44.9201 85.6476 45.0308 85.5825C45.1414 85.5174 45.2383 85.4312 45.3213 85.3237L45.5972 85.5386C45.3758 85.8787 45.0438 86.0488 44.6011 86.0488ZM44.5449 83.6807C44.3626 83.6807 44.2096 83.7474 44.0859 83.8809C43.9622 84.0127 43.8857 84.1982 43.8564 84.4375H45.1797V84.4033C45.1667 84.1738 45.1048 83.9964 44.9941 83.8711C44.8835 83.7441 44.7337 83.6807 44.5449 83.6807ZM47.2158 85.6802C47.377 85.6802 47.5177 85.6313 47.6382 85.5337C47.7586 85.436 47.8254 85.314 47.8384 85.1675H48.2656C48.2575 85.3188 48.2054 85.4629 48.1094 85.5996C48.0133 85.7363 47.8848 85.8454 47.7236 85.9268C47.5641 86.0081 47.3949 86.0488 47.2158 86.0488C46.8561 86.0488 46.5697 85.9292 46.3564 85.6899C46.1449 85.4491 46.0391 85.1203 46.0391 84.7036V84.6279C46.0391 84.3708 46.0863 84.1421 46.1807 83.9419C46.2751 83.7417 46.4102 83.5863 46.5859 83.4756C46.7633 83.3649 46.9725 83.3096 47.2134 83.3096C47.5096 83.3096 47.7554 83.3983 47.9507 83.5757C48.1476 83.7531 48.2526 83.9834 48.2656 84.2666H47.8384C47.8254 84.0957 47.7603 83.9557 47.6431 83.8467C47.5275 83.736 47.3843 83.6807 47.2134 83.6807C46.9839 83.6807 46.8057 83.7637 46.6787 83.9297C46.5534 84.0941 46.4907 84.3325 46.4907 84.645V84.7305C46.4907 85.0348 46.5534 85.2692 46.6787 85.4336C46.804 85.598 46.9831 85.6802 47.2158 85.6802ZM49.3862 82.7188V83.3584H49.8794V83.7075H49.3862V85.3457C49.3862 85.4515 49.4082 85.5312 49.4521 85.585C49.4961 85.637 49.571 85.6631 49.6768 85.6631C49.7288 85.6631 49.8005 85.6533 49.8916 85.6338V86C49.7728 86.0326 49.6572 86.0488 49.5449 86.0488C49.3431 86.0488 49.1909 85.9878 49.0884 85.8657C48.9858 85.7437 48.9346 85.5703 48.9346 85.3457V83.7075H48.4536V83.3584H48.9346V82.7188H49.3862Z" fill="black"/>
</g>
<rect y="69" width="59" height="15" fill="white"/>
<defs>
<clipPath id="clip0_118:48">
<rect width="66" height="82.5" fill="white" transform="translate(1)"/>
</clipPath>
</defs>
</svg>
