<svg width="97" height="120" viewBox="0 0 97 120" fill="none" xmlns="http://www.w3.org/2000/svg">
<path d="M95 89.5H5" stroke="black" stroke-miterlimit="10"/>
<path d="M16.392 0C15.842 0 15.392 0.45 15.392 1V15C15.392 15.55 15.842 16 16.392 16C16.942 16 17.392 15.55 17.392 15V1C17.392 0.45 16.942 0 16.392 0ZM13.392 3C12.842 3 12.392 3.45 12.392 4V12C12.392 12.55 12.842 13 13.392 13C13.942 13 14.392 12.55 14.392 12V4C14.392 3.45 13.942 3 13.392 3ZM10.392 5C9.842 5 9.392 5.45 9.392 6V10C9.392 10.55 9.842 11 10.392 11C10.942 11 11.392 10.55 11.392 10V6C11.392 5.45 10.942 5 10.392 5ZM19.392 0C18.842 0 18.392 0.45 18.392 1V15C18.392 15.55 18.842 16 19.392 16C19.942 16 20.392 15.55 20.392 15V1C20.392 0.45 19.942 0 19.392 0ZM84.392 0C83.842 0 83.392 0.45 83.392 1V15C83.392 15.55 83.842 16 84.392 16C84.942 16 85.392 15.55 85.392 15V1C85.392 0.45 84.942 0 84.392 0ZM81.392 0C80.842 0 80.392 0.45 80.392 1V15C80.392 15.55 80.842 16 81.392 16C81.942 16 82.392 15.55 82.392 15V1C82.392 0.45 81.942 0 81.392 0ZM87.392 3C86.842 3 86.392 3.45 86.392 4V12C86.392 12.55 86.842 13 87.392 13C87.942 13 88.392 12.55 88.392 12V4C88.392 3.45 87.942 3 87.392 3ZM90.392 5C89.842 5 89.392 5.45 89.392 6V10C89.392 10.55 89.842 11 90.392 11C90.942 11 91.392 10.55 91.392 10V6C91.392 5.45 90.942 5 90.392 5ZM58.493 6.024H57.342C56.8 6.024 56.36 6.462 56.347 7H43.653C43.64 6.461 43.199 6.024 42.658 6.024H41.507C40.965 6.024 40.525 6.462 40.512 7H21.001V8H79.001V7H59.488C59.475 6.461 59.034 6.024 58.493 6.024ZM54 25.992C54 22.955 52.972 20.976 49.999 20.976C46.983 20.976 46 22.954 46 25.992C46 29.275 48 31.976 49.999 31.976C52.031 31.976 54 29.275 54 25.992ZM56.315 9L56.178 19.17C56.179 19.223 56.179 19.27 56.18 19.327C56.2 20.391 57.018 20.977 57.018 20.977C57.018 20.977 56.593 20.936 56.157 20.695L56.004 32.005H55.99C55.99 32.555 55.544 33 54.995 33H45.004C44.454 33 44.009 32.554 44.009 32.005H43.995L43.842 20.691C43.404 20.936 42.974 20.976 42.974 20.976C42.974 20.976 43.793 20.39 43.812 19.326C43.815 19.165 43.817 19.023 43.818 18.89L43.685 9H40.47L40.007 33.809C40.007 35.806 41.435 37.933 42.001 37.987C42.001 37.989 42 37.995 42 37.997L42.001 38.007H42.297C43.985 38.007 44.016 40 44.016 40C44.016 40 43.653 39.003 42.3 39.003C42.241 39.003 42.191 39.003 42.136 39.003L43.843 51.615C44.032 52.553 44.99 52.972 44.99 52.972C44.99 52.972 44.52 53.038 44.005 52.945C44.004 52.951 44.001 52.956 44.001 52.962L42.001 70.827C42.001 70.876 42.008 70.911 42.016 70.945C42.014 70.97 42.001 70.992 42.001 71.018C42.001 71.038 42.011 71.054 42.012 71.073L42.976 87.982C42.976 88.532 43.426 88.982 43.976 88.982H45.705C46.255 88.982 46.705 88.532 46.705 87.982L47.475 72.052C47.449 71.074 45.989 70 45.989 70C45.989 70 46.737 70.188 47.404 70.643C47.43 70.469 47.455 70.256 47.479 69.99L49.854 58.977H50.129L52.504 69.99C52.528 70.258 52.553 70.471 52.58 70.646C53.239 70.195 53.97 70 53.97 70C53.97 70 52.536 71.073 52.509 72.053L53.279 87.983C53.279 88.533 53.729 88.983 54.279 88.983H56.008C56.558 88.983 57.008 88.533 57.008 87.983L57.972 71.074C57.973 71.055 57.983 71.038 57.983 71.019C57.983 70.993 57.97 70.972 57.968 70.946C57.975 70.912 57.983 70.877 57.983 70.828L55.983 52.963C55.983 52.947 55.977 52.933 55.974 52.919C55.461 53.02 54.997 52.973 54.997 52.973C54.997 52.973 55.97 52.552 56.157 51.609L57.863 39.003C57.808 39.003 57.758 39.003 57.699 39.003C56.347 39.003 55.983 40 55.983 40C55.983 40 56.014 38.007 57.702 38.007H57.998L58 37.997C58 37.995 57.999 37.989 57.999 37.987C58.565 37.933 59.993 35.806 59.993 33.809L59.53 9H56.315Z" fill="black"/>
<rect y="95" width="97" height="21" fill="white"/>
</svg>
