<?xml version="1.0" standalone="no"?>
<!DOCTYPE svg PUBLIC "-//W3C//DTD SVG 20010904//EN"
 "http://www.w3.org/TR/2001/REC-SVG-20010904/DTD/svg10.dtd">
<svg version="1.0" xmlns="http://www.w3.org/2000/svg"
 width="8000.000000pt" height="5000.000000pt" viewBox="0 0 8000.000000 5000.000000"
 preserveAspectRatio="xMidYMid meet">
<metadata>
Created by potrace 1.16, written by Peter Selinger 2001-2019
</metadata>
<g transform="translate(0.000000,5000.000000) scale(0.100000,-0.100000)"
fill="#000000" stroke="none">
<path d="M28920 27179 c-52 -11 -122 -31 -155 -44 -32 -13 -61 -22 -64 -20 -2
3 1 17 8 32 12 27 12 27 -7 10 -11 -10 -26 -32 -32 -48 -11 -26 -17 -29 -59
-29 -37 -1 -42 -3 -28 -11 16 -9 10 -15 -42 -47 -134 -82 -225 -175 -294 -302
-100 -185 -113 -420 -33 -595 13 -29 67 -113 119 -187 52 -73 152 -220 222
-326 71 -105 129 -191 131 -189 1 1 -7 29 -18 62 -30 89 -34 153 -13 228 17
64 17 67 -4 135 -26 87 -27 122 -1 154 42 54 113 39 174 -35 22 -27 52 -51 72
-57 30 -10 41 -9 81 12 66 32 83 61 95 154 17 145 28 183 60 220 68 78 159
100 457 114 117 5 230 14 250 20 43 12 156 102 188 149 65 96 51 231 -31 314
-56 56 -442 231 -613 278 -117 32 -335 36 -463 8z"/>
<path d="M38299 27049 c-126 -18 -236 -75 -312 -159 -33 -37 -78 -108 -93
-148 -1 -1 -27 14 -60 33 -79 48 -123 59 -224 59 -223 0 -483 -148 -785 -448
-62 -61 -131 -126 -155 -145 -56 -45 -112 -134 -135 -213 -22 -75 -25 -261 -6
-353 22 -106 54 -207 68 -212 40 -15 75 68 119 282 15 72 33 147 40 168 18 52
67 122 132 189 l55 56 33 -96 c99 -287 283 -571 463 -714 72 -58 168 -114 178
-104 3 2 -4 9 -15 15 -43 23 -319 357 -307 370 3 2 24 -14 48 -36 90 -83 185
-123 359 -150 l110 -18 -4 -145 c-4 -128 -8 -153 -31 -211 -27 -64 -33 -111
-21 -144 5 -12 14 -4 40 34 35 52 96 101 125 101 9 0 33 -7 52 -15 125 -52
281 53 382 257 73 149 89 223 88 418 0 147 -3 176 -26 265 -15 55 -27 102 -27
106 0 3 26 -1 58 -9 33 -9 69 -12 86 -8 65 16 193 171 256 310 27 59 30 76 30
169 0 185 -61 353 -149 408 -84 54 -220 59 -354 13 l-42 -14 23 20 c33 27 104
47 204 56 l83 8 -50 7 c-66 9 -166 9 -236 -2z"/>
<path d="M62205 27036 c-59 -15 -106 -38 -156 -77 l-37 -29 -64 30 c-246 115
-505 63 -693 -140 -111 -118 -165 -206 -385 -624 -278 -531 -391 -709 -601
-951 -250 -288 -500 -465 -824 -582 l-120 -43 95 3 c77 3 115 10 201 40 224
76 532 257 837 495 46 35 85 62 88 60 2 -3 -19 -38 -48 -79 -61 -87 -194 -227
-287 -303 -62 -50 -227 -169 -247 -177 -5 -2 -48 -25 -95 -51 -93 -52 -254
-122 -361 -157 -38 -13 -68 -25 -68 -28 0 -7 57 -90 124 -178 74 -98 227 -258
321 -335 75 -62 214 -155 245 -165 33 -10 286 128 425 232 l50 38 -70 -79
c-38 -43 -114 -120 -169 -171 l-98 -92 88 -29 c163 -53 211 -39 350 101 85 87
151 183 221 323 60 123 62 121 66 -80 1 -70 5 -124 8 -120 22 24 141 191 193
272 193 294 345 590 483 940 36 91 67 167 69 169 2 2 21 -4 44 -13 51 -20 122
-21 161 0 24 12 37 13 63 4 36 -11 92 -66 126 -120 l21 -35 -4 70 c-2 39 -13
95 -25 125 -17 45 -21 83 -24 200 l-3 144 90 13 c192 27 292 66 385 150 26 24
51 43 55 43 19 0 -157 -221 -274 -344 -53 -55 -54 -57 -21 -41 241 121 478
437 605 807 44 126 39 125 132 17 88 -103 107 -149 149 -344 39 -186 61 -247
94 -265 12 -6 23 -10 25 -8 7 8 48 156 61 224 18 99 18 254 -1 329 -23 87 -71
168 -134 226 -31 29 -115 109 -187 179 -351 339 -648 483 -879 426z"/>
<path d="M17858 25670 c-221 -35 -359 -114 -415 -237 -61 -134 2 -389 107
-433 42 -17 157 -8 287 24 286 69 396 55 476 -61 27 -39 107 -213 107 -232 0
-18 59 -71 78 -71 11 0 30 13 41 29 23 32 91 64 116 54 37 -13 46 -115 20
-212 -7 -30 -11 -68 -8 -85 7 -40 48 -124 77 -161 l22 -28 93 89 c85 80 97 97
146 198 116 238 198 579 174 726 -9 59 -6 66 31 72 22 4 20 6 -17 18 -36 11
-43 17 -43 39 -1 40 -34 104 -69 134 -44 36 -59 34 -27 -4 40 -47 31 -53 -21
-12 -88 67 -212 110 -403 139 -122 18 -679 28 -772 14z"/>
<path d="M67025 23851 c-132 -34 -280 -84 -448 -152 -105 -43 -135 -51 -214
-56 l-93 -6 0 -109 c0 -110 -18 -227 -45 -292 -11 -27 -12 -34 -3 -31 98 33
201 58 233 57 22 -1 133 -6 247 -12 224 -12 397 -2 449 26 42 21 67 80 80 187
15 127 9 378 -10 400 -19 24 -68 21 -196 -12z"/>
<path d="M18853 23429 c30 -62 13 -106 -78 -196 -113 -111 -253 -169 -468
-194 -112 -13 -295 -7 -342 11 -41 16 -82 57 -95 96 -14 42 0 98 41 161 41 66
39 77 -13 57 -359 -137 -585 -343 -662 -604 -20 -69 -49 -281 -75 -565 -12
-121 -23 -242 -26 -270 -6 -60 19 -120 88 -210 53 -70 122 -125 200 -160 32
-13 57 -27 57 -29 0 -38 65 -281 110 -414 145 -423 215 -828 227 -1317 6 -248
-5 -489 -33 -684 -10 -78 -11 -107 -3 -118 20 -23 130 -70 214 -92 226 -57
472 -75 925 -68 434 7 806 40 1106 98 175 33 227 53 283 108 84 82 97 172 55
376 -24 116 -20 112 -70 66 -36 -34 -51 -41 -83 -41 -86 0 -217 73 -322 180
-68 69 -129 172 -129 219 0 89 131 172 365 231 l110 28 -4 64 c-1 34 -5 66 -7
70 -3 4 -9 204 -14 445 -9 399 -19 629 -36 786 -6 55 -8 59 -60 100 -53 41
-65 57 -43 57 7 0 54 20 107 45 213 101 360 231 475 422 48 80 109 235 121
308 l7 40 -213 196 c-266 245 -480 434 -578 508 -187 141 -494 252 -815 294
-159 21 -297 37 -322 37 l-20 0 20 -41z"/>
<path d="M64537 22756 c-20 -20 -44 -100 -91 -296 -34 -144 -35 -145 -83 -190
-26 -25 -58 -53 -71 -62 l-23 -16 44 -63 c53 -77 110 -187 128 -249 7 -25 16
-49 20 -54 5 -5 48 29 97 76 49 46 128 110 177 143 173 115 265 243 265 369 0
106 -57 205 -153 267 -102 66 -277 108 -310 75z"/>
<path d="M47115 22460 c-87 -23 -164 -56 -540 -237 -165 -80 -344 -165 -397
-190 -53 -25 -99 -52 -103 -61 -9 -24 14 -218 35 -285 35 -112 98 -188 179
-216 52 -17 151 -13 212 8 30 10 110 46 179 79 69 34 164 72 212 86 270 78
546 40 787 -106 76 -46 190 -137 228 -182 l26 -31 -6 135 c-19 445 -166 815
-377 950 -110 71 -283 91 -435 50z"/>
<path d="M38445 20115 c-554 -140 -1023 -222 -1316 -232 -163 -5 -182 -4 -250
17 -114 34 -281 104 -426 180 l-133 69 -30 -97 c-95 -308 -180 -786 -245
-1367 -13 -126 -27 -249 -30 -272 l-4 -41 217 -1 c332 0 507 -24 828 -113
l112 -31 58 -128 c31 -71 58 -129 60 -129 1 0 37 14 80 31 153 61 340 98 619
120 266 21 816 4 1177 -37 l61 -7 -7 119 c-28 466 -125 983 -261 1383 -90 266
-242 584 -280 588 -11 1 -114 -23 -230 -52z"/>
<path d="M30861 19269 c-52 -16 -165 -45 -250 -64 -884 -197 -1781 -190 -2583
18 -111 29 -128 31 -132 18 -15 -50 -50 -641 -66 -1116 -31 -906 -42 -1592
-31 -1945 28 -895 112 -2302 261 -4385 36 -497 37 -505 56 -505 17 0 16 5 5
-56 -9 -47 -13 -77 -27 -211 l-6 -63 -12238 0 -12239 0 -28 -24 c-24 -21 -27
-31 -27 -80 0 -45 4 -61 22 -79 l23 -22 37138 0 c36507 0 37139 0 37160 19 17
16 21 31 21 82 0 56 -3 65 -26 83 l-27 21 -6028 0 -6029 0 -6 28 c-11 54 -35
110 -54 127 -10 9 -70 31 -132 49 -146 41 -224 80 -334 168 -115 92 -429 298
-454 298 -10 0 -55 -28 -100 -62 -123 -94 -128 -97 -161 -88 -34 10 -124 74
-139 98 -9 15 -13 14 -34 -12 -33 -40 -50 -105 -42 -165 8 -62 -13 -170 -60
-310 -20 -56 -33 -109 -30 -117 5 -12 -258 -14 -1799 -14 l-1805 0 0 23 c0 41
-31 116 -56 136 -13 10 -63 28 -111 40 -48 12 -119 36 -158 52 -68 29 -98 48
-260 172 -107 82 -365 247 -385 247 -18 0 -113 -66 -178 -122 -56 -48 -118
-32 -208 54 l-31 29 -22 -27 c-29 -36 -44 -99 -38 -158 6 -67 -14 -175 -58
-306 -20 -61 -34 -117 -31 -125 7 -19 -518 -21 -7527 -17 -5342 2 -5597 3
-5588 20 7 13 0 45 -26 117 -72 207 -85 269 -87 415 -3 140 -8 161 -58 233
l-20 27 -55 -50 c-69 -63 -120 -90 -171 -90 -34 0 -52 10 -132 75 -51 42 -112
87 -136 101 l-44 26 -136 -88 c-182 -117 -334 -223 -419 -294 -148 -121 -261
-179 -454 -229 -59 -16 -116 -33 -127 -39 -40 -22 -64 -60 -86 -140 l-23 -82
-84 0 c-71 0 -82 2 -72 14 9 11 2 43 -33 148 -59 174 -76 262 -74 383 2 103
-5 128 -53 196 l-18 26 -53 -49 c-29 -27 -71 -57 -93 -68 -70 -34 -89 -28
-200 60 -123 98 -156 116 -187 99 -55 -29 -400 -264 -468 -319 -182 -146 -278
-195 -480 -249 -94 -25 -120 -35 -142 -60 -27 -30 -58 -114 -58 -158 l0 -23
-687 1 c-456 0 -677 4 -655 10 74 22 76 112 7 327 -59 187 -60 196 -57 658 l3
421 -113 -38 c-172 -58 -352 -89 -515 -89 -46 0 -83 -2 -83 -6 0 -3 41 -125
90 -271 99 -293 106 -331 70 -427 -57 -151 -221 -261 -483 -321 -61 -15 -150
-35 -197 -46 -189 -43 -230 -103 -123 -184 l46 -35 -1359 1 c-747 1 -1347 4
-1333 6 80 12 86 116 18 318 -39 118 -43 139 -43 225 1 107 -6 86 133 428 50
123 91 227 91 232 0 4 -28 0 -62 -8 -41 -10 -111 -16 -198 -16 -151 0 -241 19
-349 74 l-59 29 -6 -67 c-4 -37 -14 -128 -22 -202 -28 -251 -114 -440 -266
-587 -113 -109 -228 -162 -421 -193 -205 -33 -267 -61 -267 -121 0 -31 28 -66
80 -101 23 -16 -170 -17 -3180 -16 -1763 1 -3177 3 -3142 5 l63 4 -7 56 c-3
30 -19 105 -34 165 l-28 110 27 9 26 9 294 2138 c162 1175 297 2141 301 2145
17 19 94 -444 110 -653 41 -541 256 -1447 572 -2410 186 -567 378 -1057 471
-1202 26 -40 43 -57 68 -64 l34 -10 7 -87 c7 -90 20 -146 44 -184 l14 -23 900
0 899 0 -10 29 c-17 47 -76 108 -132 135 -28 14 -99 35 -157 46 -276 55 -517
161 -652 288 -47 43 -47 45 -33 73 23 43 19 87 -30 330 -225 1117 -395 2568
-510 4339 -44 684 -79 1403 -95 1950 -10 355 -28 590 -65 890 -30 232 -33 250
-48 249 -7 -1 -54 -14 -106 -30z"/>
<path d="M50767 16438 c-134 -133 -362 -259 -667 -368 -57 -21 -107 -44 -111
-51 -4 -8 -23 -49 -43 -91 -68 -144 -158 -190 -371 -189 -136 0 -266 22 -448
75 -113 33 -118 34 -224 26 -59 -5 -142 -11 -183 -14 l-75 -5 -37 48 c-20 26
-60 81 -88 122 l-51 74 -157 75 -157 75 -135 -7 c-74 -3 -168 -9 -208 -13
l-73 -7 73 -35 c95 -45 199 -124 324 -245 l101 -98 134 0 134 -1 277 -287
c152 -158 393 -405 535 -549 300 -305 277 -291 503 -300 l134 -6 -87 -18
c-116 -23 -211 -56 -232 -79 -23 -26 -16 -67 40 -235 100 -298 228 -585 289
-644 l36 -35 193 12 c330 21 600 54 752 93 105 26 135 38 163 63 79 71 162
326 203 626 17 123 18 525 1 650 -20 151 -59 330 -96 441 -26 79 -382 951
-389 955 -1 0 -28 -26 -60 -58z"/>
<path d="M19227 13800 c-7 -88 -40 -161 -77 -171 -14 -4 -76 -12 -138 -18 -61
-6 -123 -16 -136 -22 -21 -10 -28 -31 -64 -198 -42 -189 -62 -299 -82 -450
-16 -114 -58 -224 -135 -356 -76 -128 -80 -155 -36 -243 32 -63 62 -95 84 -90
27 6 672 641 678 668 17 73 63 121 192 199 99 60 266 223 301 293 41 82 39 86
-71 143 -138 69 -261 155 -311 214 -47 56 -98 87 -160 97 l-39 6 -6 -72z"/>
<path d="M74060 13365 l0 -55 230 0 230 0 0 55 0 55 -230 0 -230 0 0 -55z"/>
<path d="M20684 12706 c-168 -114 -225 -156 -352 -259 -69 -56 -212 -122 -334
-155 -59 -16 -118 -36 -131 -45 -34 -22 -67 -113 -67 -184 l0 -56 472 8 c471
7 471 7 516 31 59 32 131 31 258 -1 124 -32 264 -34 372 -6 70 19 122 43 122
59 0 4 -14 43 -31 87 -55 145 -81 260 -83 380 -2 90 -6 117 -23 151 -38 71
-46 73 -102 21 -97 -91 -149 -99 -226 -36 -87 72 -172 129 -191 129 -11 -1
-101 -56 -200 -124z"/>
</g>
</svg>
